<svg xmlns="http://www.w3.org/2000/svg" width="104.317" height="88.642" viewBox="0 0 104.317 88.642">
  <g id="Group_723" data-name="Group 723" transform="translate(-680.175 -2873.677)">
    <path id="Path_3177" data-name="Path 3177" d="M683.048,2927.683" fill="none" stroke="#3d9a3b" stroke-linejoin="round" stroke-width="4"/>
    <path id="Path_3178" data-name="Path 3178" d="M695.967,2942" fill="none" stroke="#3d9a3b" stroke-linejoin="round" stroke-width="4"/>
    <path id="Path_3179" data-name="Path 3179" d="M719.813,2932.8" fill="none" stroke="#3d9a3b" stroke-linejoin="round" stroke-width="4"/>
    <path id="Path_3180" data-name="Path 3180" d="M740.927,2929.163" fill="none" stroke="#3d9a3b" stroke-linejoin="round" stroke-width="4"/>
    <path id="Path_3181" data-name="Path 3181" d="M741.02,2898.112" fill="none" stroke="#c6c8cb" stroke-linejoin="round" stroke-width="4"/>
    <path id="Path_3182" data-name="Path 3182" d="M695.967,2935.978l.014-.577c0-3.639-.023-.677,0-4.315l-6.214.347a2.232,2.232,0,0,1-2.072.324,25.613,25.613,0,0,1-4.645-4.074c-1.411-1.7-1.119-2.836.52-4.476,6.7-6.71,18-18,24.7-24.708q10.578-10.577,21.161-21.153" fill="none" stroke="#d01e27" stroke-linejoin="round" stroke-width="4"/>
    <path id="Path_3183" data-name="Path 3183" d="M719.813,2932.8" fill="none" stroke="#d01e27" stroke-linejoin="round" stroke-width="4"/>
    <path id="Path_3184" data-name="Path 3184" d="M730.589,2929.152" fill="none" stroke="#d01e27" stroke-linejoin="round" stroke-width="4"/>
    <path id="Path_3185" data-name="Path 3185" d="M769.733,2926.963l-1.324.074a8.376,8.376,0,0,1,.26,2.372c-.233,8.992-.077,17.993-.091,26.992-.005,3.061-.864,3.9-3.958,3.907q-8.172.016-16.344-.006" fill="none" stroke="#faac00" stroke-linejoin="round" stroke-width="4"/>
    <path id="Path_3186" data-name="Path 3186" d="M748.276,2960.3c-2.638-.007-3.629-1.008-3.634-3.685-.015-7.9-.008-15.792-.019-23.689,0-2.872-.862-3.757-3.7-3.765q-5.169-.015-10.338-.011l-9.588.536c-.847.533-1.185,1.515-1.188,3.109q-.013,11.844-.006,23.689c0,2.82-.947,3.809-3.7,3.819q-8.265.029-16.528,0c-2.787-.009-3.6-.84-3.609-3.613-.01-4.9,0-16.49,0-21.388" fill="none" stroke="#0082c8" stroke-linejoin="round" stroke-width="4"/>
    <path id="Path_3187" data-name="Path 3187" d="M729.433,2877.346c2.257-2.254,3.376-2.221,5.667.074,13.57,13.6,31.732,31.781,45.31,45.37,2.748,2.751,2.8,3.781.023,6.453-1.316,1.268-2.16,3.305-4.612,3.2-.505-.294-5.69-5.082-6.088-5.482l-1.324.074a8.376,8.376,0,0,1,.26,2.372c-.233,8.992-.077,9.117-.091,18.116" fill="none" stroke="#3d9a3b" stroke-linejoin="round" stroke-width="4"/>
  </g>
</svg>
