<svg xmlns="http://www.w3.org/2000/svg" width="88.181" height="88.18" viewBox="0 0 88.181 88.18">
  <g id="Group_255" data-name="Group 255" transform="translate(-393.613 -3241.856)">
    <line id="Line_37" data-name="Line 37" x1="18.793" transform="translate(460.796 3289.301)" fill="none" stroke="#408a33" stroke-linecap="round" stroke-linejoin="round" stroke-width="4"/>
    <line id="Line_38" data-name="Line 38" y2="39.011" transform="translate(434.342 3243.87)" fill="none" stroke="#0071bb" stroke-linecap="round" stroke-linejoin="round" stroke-width="4"/>
    <line id="Line_39" data-name="Line 39" x2="12.732" transform="translate(395.685 3271.529)" fill="none" stroke="#fb9900" stroke-linecap="round" stroke-linejoin="round" stroke-width="4"/>
    <line id="Line_40" data-name="Line 40" x2="16.807" transform="translate(427.619 3282.881)" fill="none" stroke="#0071bb" stroke-linecap="round" stroke-linejoin="round" stroke-width="4"/>
    <path id="Path_1113" data-name="Path 1113" d="M434.344,3327.786v-23.219h10.084" fill="none" stroke="#c2041d" stroke-linecap="round" stroke-linejoin="round" stroke-width="4"/>
    <path id="Path_2864" data-name="Path 2864" d="M404.733,3243.856h65.941a9.12,9.12,0,0,1,9.12,9.119v65.941a9.12,9.12,0,0,1-9.12,9.12H404.733a9.12,9.12,0,0,1-9.12-9.12v-65.941a9.232,9.232,0,0,1,2.395-6.159A8.977,8.977,0,0,1,404.733,3243.856Z" fill="none" stroke="#0071bb" stroke-linecap="round" stroke-width="4"/>
    <path id="Path_1114" data-name="Path 1114" d="M479.794,3317.859a10.179,10.179,0,0,1-10.178,10.177H405.79" fill="none" stroke="#c2041d" stroke-linecap="round" stroke-linejoin="round" stroke-width="4"/>
    <path id="Path_1115" data-name="Path 1115" d="M405.792,3328.036a10.179,10.179,0,0,1-10.177-10.177v-63.826" fill="none" stroke="#fb9900" stroke-linecap="round" stroke-linejoin="round" stroke-width="4"/>
  </g>
</svg>
