<svg xmlns="http://www.w3.org/2000/svg" width="91.617" height="93.366" viewBox="0 0 91.617 93.366">
  <g id="Group_1024" data-name="Group 1024" transform="translate(-393.474 -2869.189)">
    <path id="Path_3202" data-name="Path 3202" d="M455.717,2939.06a100.671,100.671,0,0,1,9.991,2.661,67.663,67.663,0,0,1,9,3.363c4.224,2.049,7.486,4.184,8.114,9.117a34.106,34.106,0,0,1,.273,4.517,2.587,2.587,0,0,1-.164,1.071c-.592,1.3-5.213.528-6.461.523q-3.99-.014-7.978-.005c-5.319.008-10.638.032-15.956.032h-14.5" fill="none" stroke="#0082c8" stroke-linecap="round" stroke-linejoin="round" stroke-width="4"/>
    <path id="Path_3203" data-name="Path 3203" d="M422.849,2939.06a100.724,100.724,0,0,0-9.99,2.661,67.673,67.673,0,0,0-9,3.363c-4.224,2.049-7.486,4.184-8.114,9.117a34.282,34.282,0,0,0-.273,4.517,2.6,2.6,0,0,0,.164,1.071c.593,1.3,5.213.528,6.462.523q3.988-.014,7.978-.005c5.319.008,10.637.032,15.956.032h14.494" fill="none" stroke="#0082c8" stroke-linecap="round" stroke-linejoin="round" stroke-width="4"/>
    <path id="Path_3204" data-name="Path 3204" d="M455.6,2930.754l1.266,4.9L445.75,2959.9" fill="none" stroke="#0082c8" stroke-linecap="round" stroke-linejoin="round" stroke-width="4"/>
    <path id="Path_3205" data-name="Path 3205" d="M422.968,2930.754l-1.266,4.9,11.114,24.245" fill="none" stroke="#0082c8" stroke-linecap="round" stroke-linejoin="round" stroke-width="4"/>
    <path id="Path_3206" data-name="Path 3206" d="M444.957,2876.251s19.857,1.424,20.015,27.37H413.594c.158-25.946,20.015-27.37,20.015-27.37" fill="none" stroke="#0082c8" stroke-linecap="round" stroke-linejoin="round" stroke-width="4"/>
    <path id="Path_3207" data-name="Path 3207" d="M462.006,2904.412c.03.462.042.925.048,1.388.018,1.227-.015,2.455-.089,3.68a51.915,51.915,0,0,1-.582,5.248,44.107,44.107,0,0,1-1.425,6.091,33.428,33.428,0,0,1-2.623,6.21,25.08,25.08,0,0,1-4.174,5.6,21.682,21.682,0,0,1-6.077,4.273,23.264,23.264,0,0,1-3.821,1.4,15.013,15.013,0,0,1-5.128.557,18.7,18.7,0,0,1-5.024-1.267,21.8,21.8,0,0,1-6.536-3.876,23.825,23.825,0,0,1-4.56-5.364,31.236,31.236,0,0,1-2.935-6.129,41.776,41.776,0,0,1-1.662-6.172,51.058,51.058,0,0,1-.74-5.495q-.165-2.043-.17-4.095c0-.658.008-1.318.048-1.975l.005-.078" fill="none" stroke="#0082c8" stroke-linecap="round" stroke-miterlimit="10" stroke-width="4"/>
    <path id="Path_3208" data-name="Path 3208" d="M455.6,2930.754l1.266,4.9L445.75,2959.9" fill="none" stroke="#3d9a3b" stroke-linecap="round" stroke-linejoin="round" stroke-width="4"/>
    <path id="Path_3209" data-name="Path 3209" d="M440.015,2871.189H437a3.076,3.076,0,0,0-3.076,3.076v8.789" fill="none" stroke="#d01e27" stroke-linecap="round" stroke-linejoin="round" stroke-width="4"/>
    <path id="Path_3210" data-name="Path 3210" d="M422.968,2930.754l-1.266,4.9,11.114,24.245" fill="none" stroke="#3d9a3b" stroke-linecap="round" stroke-linejoin="round" stroke-width="4"/>
    <path id="Path_3211" data-name="Path 3211" d="M438.552,2871.189h3.016a3.077,3.077,0,0,1,3.077,3.076v8.789" fill="none" stroke="#d01e27" stroke-linecap="round" stroke-linejoin="round" stroke-width="4"/>
    <path id="Path_3212" data-name="Path 3212" d="M462.006,2904.412c.03.462.042.925.048,1.388.018,1.227-.015,2.455-.089,3.68a51.915,51.915,0,0,1-.582,5.248,44.107,44.107,0,0,1-1.425,6.091,33.428,33.428,0,0,1-2.623,6.21,25.08,25.08,0,0,1-4.174,5.6,21.682,21.682,0,0,1-6.077,4.273,23.264,23.264,0,0,1-3.821,1.4,15.013,15.013,0,0,1-5.128.557,18.7,18.7,0,0,1-5.024-1.267,21.8,21.8,0,0,1-6.536-3.876,23.825,23.825,0,0,1-4.56-5.364,31.236,31.236,0,0,1-2.935-6.129,41.776,41.776,0,0,1-1.662-6.172,51.058,51.058,0,0,1-.74-5.495q-.165-2.043-.17-4.095c0-.658.008-1.318.048-1.975l.005-.078" fill="none" stroke="#faac00" stroke-linecap="round" stroke-miterlimit="10" stroke-width="4"/>
    <path id="Path_3213" data-name="Path 3213" d="M444.957,2876.251s19.857,1.424,20.015,27.37H413.594c.158-25.946,20.015-27.37,20.015-27.37" fill="none" stroke="#d01e27" stroke-linecap="round" stroke-linejoin="round" stroke-width="4"/>
    <path id="Path_3214" data-name="Path 3214" d="M455.717,2939.06a100.671,100.671,0,0,1,9.991,2.661,67.663,67.663,0,0,1,9,3.363c4.224,2.049,7.486,4.184,8.114,9.117a34.106,34.106,0,0,1,.273,4.517,2.587,2.587,0,0,1-.164,1.071c-.592,1.3-5.213.528-6.461.523q-3.99-.014-7.978-.005c-5.319.008-10.638.032-15.956.032h-14.5" fill="none" stroke="#0082c8" stroke-linecap="round" stroke-linejoin="round" stroke-width="4"/>
    <path id="Path_3215" data-name="Path 3215" d="M422.849,2939.06a100.724,100.724,0,0,0-9.99,2.661,67.673,67.673,0,0,0-9,3.363c-4.224,2.049-7.486,4.184-8.114,9.117a34.282,34.282,0,0,0-.273,4.517,2.6,2.6,0,0,0,.164,1.071c.593,1.3,5.213.528,6.462.523q3.988-.014,7.978-.005c5.319.008,10.637.032,15.956.032h14.494" fill="none" stroke="#0082c8" stroke-linecap="round" stroke-linejoin="round" stroke-width="4"/>
    <line id="Line_18" data-name="Line 18" x1="10.287" y2="22.442" transform="translate(446.577 2935.658)" fill="none" stroke="#3d9a3b" stroke-linecap="round" stroke-linejoin="round" stroke-width="4"/>
    <line id="Line_19" data-name="Line 19" x2="10.287" y2="22.442" transform="translate(421.702 2935.658)" fill="none" stroke="#3d9a3b" stroke-linecap="round" stroke-linejoin="round" stroke-width="4"/>
  </g>
</svg>
