<svg id="Group_2856" data-name="Group 2856" xmlns="http://www.w3.org/2000/svg" width="58.074" height="52.594" viewBox="0 0 58.074 52.594">
  <g id="male-telemarketer" transform="translate(0 0)">
    <path id="Path_4807" data-name="Path 4807" d="M111.492,60.565c4.078,9,12.809,12.918,17.143,12.918,2.849,0,7.6-1.7,11.679-5.413q-2.237.156-4.789.157c-.4,0-.819,0-1.267-.011a4.968,4.968,0,0,1-3.026,1.034H127.6a4.96,4.96,0,1,1,0-9.921h3.63a4.942,4.942,0,0,1,3.447,1.393q.453.005.892,0a40.272,40.272,0,0,0,9.793-.948,5.418,5.418,0,0,1-.4-2.064V45.137a5.408,5.408,0,0,1,1.325-3.531,20.373,20.373,0,0,0-2.475-8.115c-2.5-4.048-7.323-5.933-15.175-5.933-6.514,0-11.012,1.352-13.751,4.134-2.123,2.156-3.354,5.233-3.929,9.88a5.4,5.4,0,0,1,1.355,3.567V57.714A5.354,5.354,0,0,1,111.492,60.565Z" transform="translate(-99.598 -20.889)" fill="#35b0e5"/>
    <path id="Path_4808" data-name="Path 4808" d="M66.989,39.794h4.354a2.97,2.97,0,0,0,2.969-2.969V24.248a2.965,2.965,0,0,0-1.478-2.565c.972-10.3,4.946-17.435,20.222-17.435,8.772,0,14.248,2.25,17.233,7.081,1.737,2.811,2.572,6.442,2.963,10.369a2.964,2.964,0,0,0-1.452,2.549V36.825a2.969,2.969,0,0,0,2.313,2.894c-1.919,1.255-5.893,2.538-14.121,2.538q-1,0-2.085-.026a2.54,2.54,0,0,0-2.255-1.372H92.024a2.541,2.541,0,0,0,0,5.081h3.629a2.535,2.535,0,0,0,2.058-1.055c.764.019,1.512.031,2.235.031,9.274,0,15.17-1.583,17.558-4.724q.152-.2.279-.4h1.341a2.969,2.969,0,0,0,2.969-2.969V24.248a2.969,2.969,0,0,0-2.969-2.969h-1.638c-.461-4.745-1.482-8.784-3.583-12.183C110.123,2.975,103.3,0,93.057,0S75.991,2.975,72.209,9.1c-2.1,3.4-3.121,7.438-3.582,12.183H66.989a2.969,2.969,0,0,0-2.969,2.969V36.825A2.969,2.969,0,0,0,66.989,39.794Z" transform="translate(-64.02)" fill="#35b0e5"/>
  </g>
</svg>
