<svg xmlns="http://www.w3.org/2000/svg" width="102.585" height="109.698" viewBox="0 0 102.585 109.698">
  <g id="Group_87" data-name="Group 87" transform="translate(-1149.395 -176.107)">
    <g id="Group_85" data-name="Group 85" transform="translate(1149.395 176.107)">
      <path id="Path_209" data-name="Path 209" d="M1215.024,201.34l1.02-16.717a3.64,3.64,0,0,0-3.43-3.415l-17.783.016Z" transform="translate(-1130.578 -173.995)" fill="#f8bb15"/>
      <g id="Group_84" data-name="Group 84">
        <path id="Path_210" data-name="Path 210" d="M1195.158,177.628l-44.88,44.793c-2.293,2.289.147,5.371,4.254,5.371h89.76c4.105,0,6.546-3.081,4.252-5.371l-44.879-44.793C1201.632,175.6,1197.19,175.6,1195.158,177.628Z" transform="translate(-1149.395 -176.108)" fill="#33a750"/>
        <path id="Path_211" data-name="Path 211" d="M1228.424,230.624h-1.762v.011c-.077,0-.155-.011-.232-.011h-15.673a5.067,5.067,0,0,0-5.1,5v24.118a4.541,4.541,0,0,0,.038.556h-.038v2.24a4.884,4.884,0,0,0,.042.608h16.267c3.707,0,6.711-1.98,6.711-4.421V230.637C1228.594,230.633,1228.511,230.624,1228.424,230.624Z" transform="translate(-1126.094 -153.53)" fill="#e94434"/>
        <g id="Group_83" data-name="Group 83" transform="translate(0 55.049)">
          <path id="Path_212" data-name="Path 212" d="M1244.34,215.035h-87.306c-4.22,0-7.639,2.161-7.639,4.828v44.994c0,2.666,3.419,4.828,7.639,4.828h68.744v-30.06a5.658,5.658,0,0,1,5.8-5.464h20.4v-14.3C1251.98,217.2,1248.559,215.035,1244.34,215.035Zm-73.65,15.222a2.335,2.335,0,0,1-2.328,2.329h-8.244a2.336,2.336,0,0,1-2.329-2.329V225.91a2.336,2.336,0,0,1,2.329-2.329h8.244a2.335,2.335,0,0,1,2.328,2.329Z" transform="translate(-1149.395 -215.035)" fill="#0092d7"/>
        </g>
      </g>
    </g>
  </g>
</svg>
