<svg xmlns="http://www.w3.org/2000/svg" width="23.958" height="25.62" viewBox="0 0 23.958 25.62">
  <g id="Group_85" data-name="Group 85" transform="translate(0 0)">
    <path id="Path_209" data-name="Path 209" d="M1199.547,185.91l.238-3.9a.85.85,0,0,0-.8-.8l-4.153,0Z" transform="translate(-1179.825 -179.523)" fill="#f8bb15"/>
    <g id="Group_84" data-name="Group 84">
      <path id="Path_210" data-name="Path 210" d="M1160.083,176.463,1149.6,186.924c-.535.535.034,1.254.993,1.254h20.963c.959,0,1.529-.72.993-1.254l-10.481-10.461A1.566,1.566,0,0,0,1160.083,176.463Z" transform="translate(-1149.395 -176.108)" fill="#33a750"/>
      <path id="Path_211" data-name="Path 211" d="M1210.975,230.624h-.411v0l-.054,0h-3.66a1.183,1.183,0,0,0-1.191,1.169v5.633a1.036,1.036,0,0,0,.009.13h-.009v.523a1.12,1.12,0,0,0,.01.142h3.8c.866,0,1.567-.462,1.567-1.032v-6.561C1211.015,230.626,1211,230.624,1210.975,230.624Z" transform="translate(-1187.077 -212.619)" fill="#e94434"/>
      <g id="Group_83" data-name="Group 83" transform="translate(0 12.856)">
        <path id="Path_212" data-name="Path 212" d="M1171.569,215.035h-20.39c-.986,0-1.784.5-1.784,1.128v10.508c0,.623.8,1.128,1.784,1.128h16.055v-7.021a1.321,1.321,0,0,1,1.355-1.276h4.764v-3.339C1173.353,215.54,1172.554,215.035,1171.569,215.035Zm-17.2,3.555a.545.545,0,0,1-.544.544H1151.9a.545.545,0,0,1-.544-.544v-1.015a.545.545,0,0,1,.544-.544h1.925a.545.545,0,0,1,.544.544Z" transform="translate(-1149.395 -215.035)" fill="#0092d7"/>
      </g>
    </g>
  </g>
</svg>
