<svg xmlns="http://www.w3.org/2000/svg" width="88.094" height="92.312" viewBox="0 0 88.094 92.312">
  <g id="Group_741" data-name="Group 741" transform="translate(-690.834 -3242.229)">
    <g id="Group_735" data-name="Group 735">
      <g id="Group_733" data-name="Group 733">
        <path id="Path_3216" data-name="Path 3216" d="M757.015,3298.034a20.4,20.4,0,0,1-19.411,14.1" fill="none" stroke="#c6c8cb" stroke-miterlimit="10" stroke-width="4"/>
      </g>
      <g id="Group_734" data-name="Group 734">
        <path id="Path_3217" data-name="Path 3217" d="M737.6,3332.541a40.8,40.8,0,0,0,38.828-28.2l-.014-.005-19.361-6.3h-.042a20.375,20.375,0,0,1-19.393,14.1H737.6v20.408Z" fill="none" stroke="#d01e27" stroke-miterlimit="10" stroke-width="4"/>
        <path id="Path_3218" data-name="Path 3218" d="M713.614,3258.71" fill="none" stroke="#c6c8cb" stroke-miterlimit="10" stroke-width="4"/>
        <path id="Path_3219" data-name="Path 3219" d="M698.787,3304.338" fill="none" stroke="#c6c8cb" stroke-miterlimit="10" stroke-width="4"/>
      </g>
    </g>
    <g id="Group_738" data-name="Group 738">
      <g id="Group_736" data-name="Group 736">
        <path id="Path_3220" data-name="Path 3220" d="M733.54,3307.354a20.4,20.4,0,0,1-18.683-15.05" fill="none" stroke="#c6c8cb" stroke-miterlimit="10" stroke-width="4"/>
      </g>
      <g id="Group_737" data-name="Group 737">
        <path id="Path_3221" data-name="Path 3221" d="M732.522,3327.736l1.018-20.382h-.018a20.374,20.374,0,0,1-18.665-15.049l-.042,0-19.652,5.33-.013,0a40.8,40.8,0,0,0,37.372,30.1Z" fill="none" stroke="#faac00" stroke-miterlimit="10" stroke-width="4"/>
        <path id="Path_3222" data-name="Path 3222" d="M760.166,3255.194" fill="none" stroke="#c6c8cb" stroke-miterlimit="10" stroke-width="4"/>
        <path id="Path_3223" data-name="Path 3223" d="M772.7,3301.5" fill="none" stroke="#c6c8cb" stroke-miterlimit="10" stroke-width="4"/>
      </g>
    </g>
    <g id="Group_740" data-name="Group 740">
      <g id="Group_739" data-name="Group 739">
        <path id="Path_3224" data-name="Path 3224" d="M713.889,3290.588q-.2-.6-.352-1.21a20.081,20.081,0,1,1,39.528-4.995c0,.136,0,.272,0,.406s-.007.257-.011.381q-.027.759-.114,1.5c-.009.082-.018.165-.029.247-.038.312-.085.62-.138.928-.018.1-.036.205-.056.3q-.087.459-.2.908c-.023.1-.049.2-.074.3s-.053.21-.082.312c-.018.072-.038.143-.06.214-.027.1-.056.2-.085.295-.043.138-.085.274-.13.41l.119.051,18.972,6.151a48.417,48.417,0,0,0,1.964-12.407,40.154,40.154,0,1,0-78.715,11.243Z" fill="none" stroke="#0082c8" stroke-miterlimit="10" stroke-width="4"/>
        <path id="Path_3225" data-name="Path 3225" d="M752.713,3288.151q-.087.459-.2.908C752.588,3288.758,752.653,3288.457,752.713,3288.151Z" fill="#c6c8cb" stroke="#0082c8" stroke-miterlimit="10" stroke-width="4"/>
        <path id="Path_3226" data-name="Path 3226" d="M752.907,3286.918c-.038.312-.085.62-.138.928C752.822,3287.538,752.867,3287.23,752.907,3286.918Z" fill="#c6c8cb" stroke="#0082c8" stroke-miterlimit="10" stroke-width="4"/>
        <path id="Path_3227" data-name="Path 3227" d="M744.794,3268.135" fill="none" stroke="#0082c8" stroke-miterlimit="10" stroke-width="4"/>
        <path id="Path_3228" data-name="Path 3228" d="M709.386,3251.9" fill="none" stroke="#0082c8" stroke-miterlimit="10" stroke-width="4"/>
      </g>
    </g>
    <path id="Path_3229" data-name="Path 3229" d="M718.985,3277.685a5.574,5.574,0,1,1,5.563,5.562A5.591,5.591,0,0,1,718.985,3277.685Z" fill="#fff" stroke="#3d9a3b" stroke-miterlimit="10" stroke-width="4"/>
    <path id="Path_3230" data-name="Path 3230" d="M725.41,3296.847a2.105,2.105,0,0,1-1.271-.386,1.743,1.743,0,0,1-.386-2.634l16.256-19.048a2.25,2.25,0,0,1,2.929-.341,1.761,1.761,0,0,1,.386,2.634l-16.279,19.048A2.153,2.153,0,0,1,725.41,3296.847Z" fill="#fff" stroke="#3d9a3b" stroke-miterlimit="10" stroke-width="4"/>
    <path id="Path_3231" data-name="Path 3231" d="M737.61,3291.535a5.574,5.574,0,1,1,5.562,5.562A5.59,5.59,0,0,1,737.61,3291.535Z" fill="#fff" stroke="#3d9a3b" stroke-miterlimit="10" stroke-width="4"/>
  </g>
</svg>
