<svg xmlns="http://www.w3.org/2000/svg" width="127" height="127" viewBox="0 0 127 127">
  <g id="Group_2849" data-name="Group 2849" transform="translate(12 -396)">
    <g id="Group_2846" data-name="Group 2846" transform="translate(-12 396)">
      <circle id="Ellipse_80" data-name="Ellipse 80" cx="63.5" cy="63.5" r="63.5" fill="#35b0e5" opacity="0.25"/>
      <circle id="Ellipse_81" data-name="Ellipse 81" cx="45.5" cy="45.5" r="45.5" transform="translate(18 18)" fill="#fff"/>
    </g>
    <g id="Group_2847" data-name="Group 2847" transform="translate(5.639 413.639)">
      <circle id="Ellipse_80-2" data-name="Ellipse 80" cx="45.5" cy="45.5" r="45.5" transform="translate(0.361 0.361)" fill="#35b0e5" opacity="0.5"/>
      <circle id="Ellipse_81-2" data-name="Ellipse 81" cx="31.5" cy="31.5" r="31.5" transform="translate(14.361 14.361)" fill="#fff"/>
    </g>
    <g id="Group_2848" data-name="Group 2848" transform="translate(13.674 397.764)">
      <g id="male-telemarketer" transform="translate(0 31.75)">
        <path id="Path_4807" data-name="Path 4807" d="M111.647,70.137c5.261,11.61,16.524,16.664,22.115,16.664,3.676,0,9.8-2.187,15.066-6.983q-2.886.2-6.178.2c-.516,0-1.057,0-1.635-.014a6.409,6.409,0,0,1-3.9,1.334h-4.682a6.4,6.4,0,1,1,0-12.8h4.682a6.375,6.375,0,0,1,4.447,1.8q.585.007,1.151.006a51.951,51.951,0,0,0,12.634-1.223,6.989,6.989,0,0,1-.522-2.662V50.235a6.976,6.976,0,0,1,1.71-4.555c-.578-4.5-1.627-7.935-3.193-10.469-3.226-5.222-9.447-7.654-19.576-7.654-8.4,0-14.205,1.744-17.739,5.332-2.739,2.782-4.326,6.751-5.068,12.745a6.966,6.966,0,0,1,1.748,4.6V66.46A6.907,6.907,0,0,1,111.647,70.137Z" transform="translate(-96.304 -18.955)" fill="#35b0e5"/>
        <path id="Path_4808" data-name="Path 4808" d="M67.851,51.335h5.617A3.831,3.831,0,0,0,77.3,47.5V31.28a3.825,3.825,0,0,0-1.906-3.308C76.645,14.686,81.772,5.48,101.478,5.48c11.316,0,18.381,2.9,22.231,9.135,2.241,3.627,3.318,8.311,3.822,13.376a3.824,3.824,0,0,0-1.873,3.288V47.5a3.83,3.83,0,0,0,2.983,3.733c-2.476,1.619-7.6,3.273-18.216,3.273q-1.289,0-2.689-.033a3.276,3.276,0,0,0-2.909-1.769h-4.682a3.278,3.278,0,1,0,0,6.555h4.682a3.27,3.27,0,0,0,2.655-1.361c.986.025,1.951.041,2.884.041,11.964,0,19.569-2.042,22.65-6.094q.2-.258.36-.514h1.73a3.831,3.831,0,0,0,3.83-3.83V31.28a3.83,3.83,0,0,0-3.83-3.83h-2.113c-.594-6.121-1.912-11.331-4.622-15.716C123.493,3.838,114.7,0,101.478,0S79.462,3.838,74.584,11.734c-2.71,4.385-4.027,9.595-4.621,15.716H67.85a3.83,3.83,0,0,0-3.83,3.83V47.5A3.831,3.831,0,0,0,67.851,51.335Z" transform="translate(-64.02)" fill="#35b0e5"/>
      </g>
      <g id="Rectangle_1720" data-name="Rectangle 1720" transform="translate(30.326 0.236)" fill="#fff" stroke="#35b0e5" stroke-width="1.5">
        <rect width="57" height="56" rx="28" stroke="none"/>
        <rect x="0.75" y="0.75" width="55.5" height="54.5" rx="27.25" fill="none"/>
      </g>
      <text id="_1" data-name="1" transform="translate(48.326 7.236)" fill="red" font-size="30" font-family="SegoeUI-Bold, Segoe UI" font-weight="700"><tspan x="1.872" y="32">1</tspan></text>
    </g>
  </g>
</svg>
