<svg xmlns="http://www.w3.org/2000/svg" width="112.594" height="88.249" viewBox="0 0 112.594 88.249">
  <g id="Group_1025" data-name="Group 1025" transform="translate(-92.716 -2873.293)">
    <g id="Group_725" data-name="Group 725">
      <g id="Group_724" data-name="Group 724">
        <path id="Path_3188" data-name="Path 3188" d="M151.418,2943.788" fill="none" stroke="#3d9a3b" stroke-linejoin="round" stroke-width="4"/>
        <path id="Path_3189" data-name="Path 3189" d="M178.253,2945.357" fill="none" stroke="#3d9a3b" stroke-linejoin="round" stroke-width="4"/>
        <path id="Path_3190" data-name="Path 3190" d="M94.887,2959.542V2953.9H105v-2.265c0-11.326.02-22.632-.04-33.939a2.148,2.148,0,0,1,1.769-2.444c10.432-3.477,20.844-7.054,31.256-10.591.6-.2,3.664-.338,4.5-.576v49.756h-.027c0-3.478-.04-12.059.02-15.417" fill="none" stroke="#3d9a3b" stroke-linejoin="round" stroke-width="4"/>
      </g>
    </g>
    <g id="Group_727" data-name="Group 727">
      <g id="Group_726" data-name="Group 726">
        <path id="Path_3191" data-name="Path 3191" d="M94.887,2959.542V2953.9H105v-2.265c0-11.326.02-22.632-.04-33.939a2.148,2.148,0,0,1,1.769-2.444" fill="none" stroke="#faac00" stroke-linejoin="round" stroke-width="4"/>
        <path id="Path_3192" data-name="Path 3192" d="M192.172,2939.407c-.079,3.278-.019,11.094-.019,14.572h10.074" fill="none" stroke="#0082c8" stroke-linejoin="round" stroke-width="4"/>
        <path id="Path_3193" data-name="Path 3193" d="M190.583,2941.758" fill="none" stroke="#0082c8" stroke-linejoin="round" stroke-width="4"/>
        <path id="Path_3194" data-name="Path 3194" d="M184.642,2953.82" fill="none" stroke="#0082c8" stroke-linejoin="round" stroke-width="4"/>
        <path id="Path_3195" data-name="Path 3195" d="M181.939,2943.388" fill="none" stroke="#0082c8" stroke-linejoin="round" stroke-width="4"/>
        <path id="Path_3196" data-name="Path 3196" d="M142.376,2920.837c-.034,4.448.1,12.953.1,17.586" fill="none" stroke="#3d9a3b" stroke-linejoin="round" stroke-width="4"/>
        <path id="Path_3197" data-name="Path 3197" d="M142.484,2903.378c-.057,4.317-.032,13.8-.032,18.171" fill="none" stroke="#3d9a3b" stroke-linejoin="round" stroke-width="4"/>
        <path id="Path_3198" data-name="Path 3198" d="M150.052,2889.81c-6.154,2.573-8.106,6.469-7.5,14.613" fill="none" stroke="#0082c8" stroke-linejoin="round" stroke-width="4"/>
        <path id="Path_3199" data-name="Path 3199" d="M184.569,2889.94a10.275,10.275,0,0,1,6.24,5.923,23.856,23.856,0,0,1,1.635,8.684c.489,11.867-.3,23.79-.3,35.665" fill="none" stroke="#0082c8" stroke-linejoin="round" stroke-width="4"/>
        <path id="Path_3200" data-name="Path 3200" d="M147.9,2890.625a57.028,57.028,0,0,1,38.767,0c0-2.711.088-5.254-.033-7.788-.082-1.764-1.527-2.994-3.225-4a28.173,28.173,0,0,0-12.109-3.356,39.43,39.43,0,0,0-16.845,1.846,20.288,20.288,0,0,0-3.861,1.9,4.994,4.994,0,0,0-2.716,4.5C147.961,2885.974,147.9,2888.228,147.9,2890.625Z" fill="none" stroke="#0082c8" stroke-linejoin="round" stroke-width="4"/>
      </g>
    </g>
    <g id="Group_729" data-name="Group 729">
      <g id="Group_728" data-name="Group 728">
        <path id="Path_3201" data-name="Path 3201" d="M193.1,2953.979h10.075a9.533,9.533,0,0,1,.119,1.053c.02,1.47.02,2.921.02,4.51H92.716" fill="none" stroke="#d01e27" stroke-linejoin="round" stroke-width="4"/>
      </g>
    </g>
  </g>
</svg>
