<svg xmlns="http://www.w3.org/2000/svg" width="117.149" height="99.104" viewBox="0 0 117.149 99.104">
  <g id="Group_205" data-name="Group 205" transform="translate(-19.57 4.262)">
    <g id="Group_130" data-name="Group 130" transform="translate(21 -3)">
      <path id="Path_389" data-name="Path 389" d="M1804.714,1010" transform="translate(-1803.685 -950.809)" fill="none" stroke="#31a74f" stroke-linejoin="round" stroke-width="3"/>
      <path id="Path_390" data-name="Path 390" d="M1814.4,1020.742" transform="translate(-1798.67 -945.25)" fill="none" stroke="#31a74f" stroke-linejoin="round" stroke-width="3"/>
      <path id="Path_391" data-name="Path 391" d="M1832.288,1013.84" transform="translate(-1789.411 -948.823)" fill="none" stroke="#31a74f" stroke-linejoin="round" stroke-width="3"/>
      <path id="Path_392" data-name="Path 392" d="M1848.123,1011.114" transform="translate(-1781.214 -950.234)" fill="none" stroke="#31a74f" stroke-linejoin="round" stroke-width="3"/>
      <path id="Path_393" data-name="Path 393" d="M1848.192,987.826" transform="translate(-1781.178 -962.289)" fill="none" stroke="#d0d1d3" stroke-linejoin="round" stroke-width="3"/>
      <path id="Path_394" data-name="Path 394" d="M1832.288,1013.84" transform="translate(-1789.411 -948.823)" fill="none" stroke="#da3435" stroke-linejoin="round" stroke-width="3"/>
      <path id="Path_395" data-name="Path 395" d="M1840.369,1011.106" transform="translate(-1785.228 -950.238)" fill="none" stroke="#da3435" stroke-linejoin="round" stroke-width="3"/>
      <path id="Path_396" data-name="Path 396" d="M1878.058,1009.464l-1.508.085a9.581,9.581,0,0,1,.3,2.7c-.266,10.234-.088,20.479-.1,30.722-.006,3.484-.983,4.44-4.506,4.447q-9.3.018-18.6-.007" transform="translate(-1778.361 -951.089)" fill="none" stroke="#f5bb17" stroke-linejoin="round" stroke-width="3"/>
      <path id="Path_397" data-name="Path 397" d="M1873.944,1046.562c-3-.008-4.13-1.147-4.136-4.193q-.025-13.484-.022-26.964c0-3.269-.981-4.277-4.206-4.286q-5.882-.016-11.768-.012l-10.914.61c-.964.607-1.348,1.724-1.351,3.539q-.016,13.481-.008,26.963c0,3.21-1.078,4.336-4.212,4.347q-9.406.034-18.813,0c-3.172-.011-4.1-.956-4.109-4.113-.01-5.574-.006-18.769-.006-24.345" transform="translate(-1798.671 -950.239)" fill="none" stroke="#1991d0" stroke-linejoin="round" stroke-width="3"/>
      <g id="Group_129" data-name="Group 129">
        <path id="Path_398" data-name="Path 398" d="M1819.77,1038.988l.017-.657c0-4.14-.027-.769,0-4.911l-7.072.4a2.546,2.546,0,0,1-2.359.369,29.164,29.164,0,0,1-5.287-4.638c-1.606-1.932-1.273-3.228.592-5.095,7.629-7.637,20.485-20.491,28.119-28.122q12.04-12.04,24.085-24.078" transform="translate(-1804.036 -970.352)" fill="none" stroke="#da3435" stroke-linejoin="round" stroke-width="3"/>
        <path id="Path_399" data-name="Path 399" d="M1839.5,972.9c2.569-2.566,3.843-2.528,6.452.084,15.445,15.479,36.118,36.175,51.574,51.641,3.126,3.131,3.181,4.3.025,7.346-1.5,1.443-2.458,3.762-5.25,3.646-.575-.335-6.477-5.785-6.929-6.241l-1.507.085a9.6,9.6,0,0,1,.3,2.7c-.266,10.234-.089,10.376-.1,20.619" transform="translate(-1785.677 -971)" fill="none" stroke="#31a74f" stroke-linejoin="round" stroke-width="3"/>
      </g>
    </g>
  </g>
</svg>
