<svg xmlns="http://www.w3.org/2000/svg" width="325.624" height="111.244" viewBox="0 0 325.624 111.244">
  <g id="Group_2859" data-name="Group 2859" transform="translate(-1219.084 -2232.961)">
    <g id="Group_910" data-name="Group 910" transform="translate(445 1447.368)">
      <g id="Group_260" data-name="Group 260" transform="translate(924.811 847.512)">
        <g id="Group_259" data-name="Group 259">
          <path id="Path_1132" data-name="Path 1132" d="M1152.62,820.3h1.1c0-1.513-.018-2.973.009-4.434,0-.225.119-.614.274-.657,1.021-.294,2.07-.518,3.246-.8v5.955c.447-.026.793-.043,1.158-.069,0-1.858-.018-3.613.018-5.367,0-.234.21-.64.355-.657,1.888-.173,3.784-.285,5.772-.415v6.447h1.158v-6.43c1.6.095,3.1.164,4.6.276,1.523.113,1.523.121,1.523,1.6-.009,1.512,0,3.016,0,4.537h1.24v-5.851c.994.225,1.851.441,2.726.605.593.113.748.4.729.942-.037,1.426-.009,2.86-.009,4.373h4.622a3.944,3.944,0,0,1,.055.458c.009.639.009,1.27.009,1.962H1131.9v-2.454h4.641v-.986" transform="translate(-1131.897 -784.845)" fill="#ffbfc0"/>
          <path id="Path_1133" data-name="Path 1133" d="M1183.74,758.67a27.525,27.525,0,0,1,17.788,0c0-1.179.04-2.285-.015-3.387-.037-.767-.7-1.3-1.48-1.74a13.473,13.473,0,0,0-5.556-1.46,19.044,19.044,0,0,0-7.73.8,9.548,9.548,0,0,0-1.771.825,2.158,2.158,0,0,0-1.246,1.958C1183.768,756.647,1183.74,757.628,1183.74,758.67Z" transform="translate(-1159.416 -752)" fill="#ffbfc0"/>
          <path id="Path_1134" data-name="Path 1134" d="M1204.025,795.992v7.254l6.1.385v-7Z" transform="translate(-1170.191 -775.356)" fill="#ffbfc0"/>
          <path id="Path_1135" data-name="Path 1135" d="M1194.518,796c-1.946.213-3.753.4-5.555.626-.2.025-.51.3-.512.467-.035,2.148-.023,4.3-.023,6.535l6.09-.372Z" transform="translate(-1161.909 -775.36)" fill="#ffbfc0"/>
          <path id="Path_1136" data-name="Path 1136" d="M1204.048,778.746v7l6.088.555c0-2.106.008-4.2-.016-6.286a.573.573,0,0,0-.358-.422C1207.9,779.294,1206.025,779.032,1204.048,778.746Z" transform="translate(-1170.203 -766.2)" fill="#ffbfc0"/>
          <path id="Path_1137" data-name="Path 1137" d="M1194.567,785.787v-6.94l-6.037.737v6.753Z" transform="translate(-1161.964 -766.254)" fill="#ffbfc0"/>
          <path id="Path_1138" data-name="Path 1138" d="M1210.165,770.678c0-1.586.016-3.2-.024-4.818,0-.171-.314-.44-.525-.485-1.794-.384-3.6-.726-5.512-1.1v5.7Z" transform="translate(-1170.233 -758.515)" fill="#ffbfc0"/>
          <path id="Path_1139" data-name="Path 1139" d="M1188.414,770.945l6.088-.712v-5.469a17.078,17.078,0,0,0-5.757.951.619.619,0,0,0-.317.474C1188.4,767.782,1188.414,769.374,1188.414,770.945Z" transform="translate(-1161.902 -758.777)" fill="#ffbfc0"/>
          <path id="Path_1140" data-name="Path 1140" d="M1178.327,805.542l3.507-.738v-6.933c-1.147.455-2.217.867-3.27,1.316a.594.594,0,0,0-.228.47C1178.321,801.592,1178.327,803.526,1178.327,805.542Z" transform="translate(-1156.547 -776.354)" fill="#ffbfc0"/>
          <path id="Path_1141" data-name="Path 1141" d="M1181.907,781.136c-1.188.593-2.18,1.062-3.138,1.588a.858.858,0,0,0-.335.651c-.026,1.878-.015,3.756-.015,5.657,1.1-.36,2.166-.7,3.219-1.069a.545.545,0,0,0,.257-.43C1181.913,785.5,1181.907,783.458,1181.907,781.136Z" transform="translate(-1156.596 -767.469)" fill="#ffbfc0"/>
          <path id="Path_1142" data-name="Path 1142" d="M1219.674,798.055V804.9l3.452.731c0-.6,0-1.161,0-1.727,0-1.274-.037-2.549.005-3.822a.98.98,0,0,0-.681-1.056C1221.575,798.693,1220.681,798.4,1219.674,798.055Z" transform="translate(-1178.499 -776.452)" fill="#ffbfc0"/>
          <path id="Path_1143" data-name="Path 1143" d="M1219.623,781.195c0,2.261-.006,4.28.011,6.3,0,.175.114.458.249.508,1.01.368,2.039.691,3.215,1.078,0-.6,0-1.145,0-1.685,0-1.277.037-2.555-.025-3.829a1.305,1.305,0,0,0-.542-.939C1221.657,782.119,1220.713,781.72,1219.623,781.195Z" transform="translate(-1178.472 -767.5)" fill="#ffbfc0"/>
          <path id="Path_1144" data-name="Path 1144" d="M1181.907,768.221c-2.824,1.119-3.719,2.814-3.442,6.356,1.1-.446,2.186-.878,3.259-1.338.1-.045.174-.266.175-.406C1181.912,771.33,1181.907,769.825,1181.907,768.221Z" transform="translate(-1156.595 -760.612)" fill="#ffbfc0"/>
          <path id="Path_1145" data-name="Path 1145" d="M1219.627,768.3c0,1.563-.015,3.049.019,4.535a.784.784,0,0,0,.413.555c.956.428,1.938.806,2.908,1.2A4.982,4.982,0,0,0,1219.627,768.3Z" transform="translate(-1178.473 -760.654)" fill="#ffbfc0"/>
        </g>
      </g>
      <g id="Group_262" data-name="Group 262" transform="translate(774.084 785.593)">
        <g id="Group_261" data-name="Group 261" transform="translate(0 0)">
          <path id="Path_1146" data-name="Path 1146" d="M810.574,765.609H949.042v-6.67h-13.03v-2.678c0-13.388-.026-26.752.051-40.117,0-1.668-.563-2.372-2.278-2.889-13.44-4.11-26.854-8.338-40.268-12.519-.768-.235-1.587-.4-2.662-.681v58.813h-3.1c0-4.11.051-8.08-.025-12.049,0-.611-.333-1.668-.768-1.785-2.867-.8-5.811-1.409-9.113-2.161v16.183c-1.254-.07-2.227-.117-3.251-.188,0-5.05.051-9.818-.051-14.586,0-.634-.589-1.738-1-1.785-5.3-.47-10.624-.775-16.2-1.128v17.522h-3.251V741.417c-4.48.258-8.7.447-12.928.752-4.275.305-4.275.329-4.275,4.346.025,4.11,0,8.2,0,12.331h-3.482v-15.9c-2.791.611-5.2,1.2-7.654,1.644a2.116,2.116,0,0,0-2.048,2.561c.1,3.875.025,7.774.025,11.884H810.753a10.334,10.334,0,0,0-.153,1.245C810.574,762.015,810.574,763.73,810.574,765.609Z" transform="translate(-810.574 -662.503)" fill="#acd4e6"/>
          <path id="Path_1147" data-name="Path 1147" d="M903.589,638.127a79.71,79.71,0,0,0-49.946,0c0-3.2-.113-6.21.042-9.205.106-2.085,1.969-3.54,4.156-4.73,4.614-2.5,9.983-3.535,15.6-3.967a55.124,55.124,0,0,1,21.7,2.182,27.167,27.167,0,0,1,4.974,2.243c2.314,1.332,3.584,3.082,3.5,5.319C903.51,632.628,903.589,635.294,903.589,638.127Z" transform="translate(-833.419 -620)" fill="#acd4e6"/>
          <path id="Path_1148" data-name="Path 1148" d="M883.858,739.559v19.715l-17.129,1.045V741.308Z" transform="translate(-840.388 -683.476)" fill="#acd4e6"/>
          <path id="Path_1149" data-name="Path 1149" d="M910.578,739.579c5.463.578,10.539,1.079,15.6,1.7.553.068,1.43.823,1.438,1.269.1,5.839.065,11.68.065,17.761l-17.1-1.011Z" transform="translate(-863.668 -683.487)" fill="#acd4e6"/>
          <path id="Path_1150" data-name="Path 1150" d="M883.829,692.689V711.7l-17.093,1.51c0-5.723-.021-11.4.045-17.083a1.57,1.57,0,0,1,1-1.147C873.023,694.178,878.279,693.466,883.829,692.689Z" transform="translate(-840.389 -658.592)" fill="#acd4e6"/>
          <path id="Path_1151" data-name="Path 1151" d="M910.617,711.827V692.965l16.949,2v18.354Z" transform="translate(-863.689 -658.738)" fill="#acd4e6"/>
          <path id="Path_1152" data-name="Path 1152" d="M866.734,670.761c0-4.31-.046-8.7.067-13.1.012-.464.882-1.2,1.474-1.318,5.037-1.043,10.1-1.973,15.476-3v15.494Z" transform="translate(-840.385 -637.706)" fill="#acd4e6"/>
          <path id="Path_1153" data-name="Path 1153" d="M927.721,671.487l-17.094-1.935V654.69a49.4,49.4,0,0,1,16.165,2.584,1.681,1.681,0,0,1,.889,1.289C927.748,662.89,927.721,667.218,927.721,671.487Z" transform="translate(-863.694 -638.417)" fill="#acd4e6"/>
          <path id="Path_1154" data-name="Path 1154" d="M964.25,765.514l-9.849-2V744.667c3.22,1.238,6.226,2.357,9.182,3.576a1.6,1.6,0,0,1,.639,1.278C964.265,754.779,964.25,760.037,964.25,765.514Z" transform="translate(-886.934 -686.188)" fill="#acd4e6"/>
          <path id="Path_1155" data-name="Path 1155" d="M954.254,699.184c3.336,1.611,6.122,2.886,8.809,4.317a2.309,2.309,0,0,1,.94,1.769c.074,5.1.042,10.208.042,15.375-3.087-.978-6.082-1.894-9.038-2.906a1.481,1.481,0,0,1-.721-1.17C954.239,711.032,954.254,705.495,954.254,699.184Z" transform="translate(-886.855 -662.04)" fill="#acd4e6"/>
          <path id="Path_1156" data-name="Path 1156" d="M848.319,745.167v18.606l-9.691,1.986c0-1.62,0-3.156,0-4.693.007-3.463.105-6.929-.013-10.388a2.662,2.662,0,0,1,1.911-2.871C842.981,746.9,845.491,746.116,848.319,745.167Z" transform="translate(-825.46 -686.453)" fill="#acd4e6"/>
          <path id="Path_1157" data-name="Path 1157" d="M848.367,699.346c0,6.145.017,11.632-.031,17.12,0,.477-.319,1.244-.7,1.379-2.836,1-5.725,1.878-9.026,2.93,0-1.644,0-3.112,0-4.58,0-3.469-.1-6.943.069-10.405a3.531,3.531,0,0,1,1.522-2.55C842.656,701.858,845.307,700.773,848.367,699.346Z" transform="translate(-825.443 -662.126)" fill="#acd4e6"/>
          <path id="Path_1158" data-name="Path 1158" d="M954.252,664.085c7.928,3.042,10.443,7.646,9.665,17.273-3.086-1.212-6.137-2.384-9.151-3.635-.293-.121-.489-.722-.493-1.1C954.239,672.533,954.252,668.445,954.252,664.085Z" transform="translate(-886.854 -643.406)" fill="#acd4e6"/>
          <path id="Path_1159" data-name="Path 1159" d="M848.094,664.3c0,4.247.043,8.287-.053,12.325a2.134,2.134,0,0,1-1.159,1.509c-2.685,1.164-5.441,2.191-8.164,3.262C836.482,674,840.283,666.868,848.094,664.3Z" transform="translate(-825.179 -643.519)" fill="#acd4e6"/>
        </g>
      </g>
      <g id="Group_264" data-name="Group 264" transform="translate(914.07 803.418)">
        <g id="Group_263" data-name="Group 263">
          <path id="Path_1160" data-name="Path 1160" d="M1156.1,813.227h2.507c0-3.437-.041-6.757.021-10.076,0-.511.269-1.395.622-1.493,2.321-.668,4.7-1.178,7.376-1.807v13.533c1.015-.059,1.8-.1,2.632-.157,0-4.223-.041-8.21.041-12.2,0-.53.477-1.453.808-1.493,4.289-.393,8.6-.648,13.116-.943v14.652h2.632V798.633c3.626.216,7.045.373,10.464.628,3.46.256,3.46.275,3.46,3.634-.021,3.437,0,6.855,0,10.311h2.818v-13.3c2.259.511,4.206,1,6.2,1.375,1.347.256,1.7.9,1.657,2.141-.083,3.241-.021,6.5-.021,9.938h10.506a8.9,8.9,0,0,1,.124,1.041c.021,1.453.021,2.887.021,4.459H1109v-5.578h10.547v-2.239" transform="translate(-1109 -732.644)" fill="#e6e6e6"/>
          <path id="Path_1161" data-name="Path 1161" d="M1226.821,673.158a62.555,62.555,0,0,1,40.426,0c0-2.679.092-5.193-.034-7.7-.086-1.744-1.594-2.96-3.364-3.955a30.63,30.63,0,0,0-12.626-3.317,43.262,43.262,0,0,0-17.566,1.824,21.716,21.716,0,0,0-4.026,1.875c-1.873,1.115-2.9,2.577-2.832,4.448C1226.884,668.56,1226.821,670.789,1226.821,673.158Z" transform="translate(-1171.54 -658)" fill="#e6e6e6"/>
          <path id="Path_1162" data-name="Path 1162" d="M1272.921,757.977v16.487l13.864.874v-15.9Z" transform="translate(-1196.029 -711.08)" fill="#e6e6e6"/>
          <path id="Path_1163" data-name="Path 1163" d="M1251.315,757.994c-4.422.483-8.53.9-12.625,1.423-.447.057-1.158.688-1.163,1.062-.079,4.883-.052,9.767-.052,14.852l13.841-.845Z" transform="translate(-1177.207 -711.089)" fill="#e6e6e6"/>
          <path id="Path_1164" data-name="Path 1164" d="M1272.974,718.784v15.9l13.835,1.263c0-4.786.017-9.536-.036-14.285a1.3,1.3,0,0,0-.813-.959C1281.719,720.029,1277.466,719.434,1272.974,718.784Z" transform="translate(-1196.057 -690.271)" fill="#e6e6e6"/>
          <path id="Path_1165" data-name="Path 1165" d="M1251.426,734.787V719.014l-13.719,1.676v15.348Z" transform="translate(-1177.333 -690.394)" fill="#e6e6e6"/>
          <path id="Path_1166" data-name="Path 1166" d="M1286.875,700.447c0-3.6.037-7.279-.054-10.95-.009-.388-.714-1-1.193-1.1-4.077-.872-8.177-1.65-12.526-2.507v12.957Z" transform="translate(-1196.124 -672.806)" fill="#e6e6e6"/>
          <path id="Path_1167" data-name="Path 1167" d="M1237.444,701.055l13.836-1.617V687.009a38.811,38.811,0,0,0-13.084,2.161,1.4,1.4,0,0,0-.72,1.078C1237.422,693.866,1237.444,697.485,1237.444,701.055Z" transform="translate(-1177.191 -673.401)" fill="#e6e6e6"/>
          <path id="Path_1168" data-name="Path 1168" d="M1214.518,779.681l7.972-1.676V762.249c-2.607,1.035-5.039,1.971-7.432,2.99a1.351,1.351,0,0,0-.517,1.069C1214.505,770.7,1214.518,775.1,1214.518,779.681Z" transform="translate(-1165.02 -713.348)" fill="#e6e6e6"/>
          <path id="Path_1169" data-name="Path 1169" d="M1222.655,724.215c-2.7,1.348-4.955,2.414-7.13,3.61a1.948,1.948,0,0,0-.76,1.479c-.06,4.268-.034,8.537-.034,12.857,2.5-.818,4.923-1.584,7.315-2.431a1.243,1.243,0,0,0,.583-.978C1222.668,734.122,1222.655,729.492,1222.655,724.215Z" transform="translate(-1165.131 -693.155)" fill="#e6e6e6"/>
          <path id="Path_1170" data-name="Path 1170" d="M1308.485,762.667v15.558l7.844,1.661c0-1.354,0-2.639,0-3.924-.007-2.9-.085-5.794.011-8.687a2.227,2.227,0,0,0-1.547-2.4C1312.805,764.116,1310.774,763.461,1308.485,762.667Z" transform="translate(-1214.91 -713.57)" fill="#e6e6e6"/>
          <path id="Path_1171" data-name="Path 1171" d="M1308.37,724.351c0,5.138-.014,9.727.025,14.315,0,.4.258,1.041.565,1.153,2.3.838,4.634,1.57,7.306,2.451,0-1.374,0-2.6,0-3.83,0-2.9.084-5.806-.056-8.7a2.971,2.971,0,0,0-1.232-2.132C1312.993,726.451,1310.847,725.544,1308.37,724.351Z" transform="translate(-1214.848 -693.227)" fill="#e6e6e6"/>
          <path id="Path_1172" data-name="Path 1172" d="M1222.655,694.865c-6.417,2.544-8.452,6.394-7.823,14.444,2.5-1.014,4.968-1.994,7.407-3.04.237-.1.4-.6.4-.922C1222.666,701.929,1222.655,698.511,1222.655,694.865Z" transform="translate(-1165.13 -677.572)" fill="#e6e6e6"/>
          <path id="Path_1173" data-name="Path 1173" d="M1308.38,695.044c0,3.551-.035,6.93.043,10.306a1.778,1.778,0,0,0,.938,1.262c2.174.973,4.4,1.832,6.608,2.728C1317.779,703.154,1314.7,697.192,1308.38,695.044Z" transform="translate(-1214.851 -677.667)" fill="#e6e6e6"/>
        </g>
      </g>
    </g>
    <path id="Path_1886" data-name="Path 1886" d="M735.224,782.709a12.092,12.092,0,0,0-.336-1.345c-.427-1.155-.836-2.322-1.358-3.434a11.9,11.9,0,0,1-1.064-4.289,24.883,24.883,0,0,0-1.045-5.326c-.166-.55-1.069-.942-1.7-1.269a1.9,1.9,0,0,1-1.066-2.25.682.682,0,0,0,.06-.244c-.16-1.157-.264-2.328-.513-3.466a14.954,14.954,0,0,0-1.415-3.422A3.337,3.337,0,0,0,723.5,755.9c-1.237.016-1.918.989-2.452,2.125a4.463,4.463,0,0,1-1.748,1.838c-1.811,1.036-3.739,1.866-5.585,2.844-1.226.649-1.325,1.273-.439,2.31.669.783,1.4,1.512,2.108,2.264.06.064.181.108.193.175.263,1.494,1.809,1.887,2.546,2.979a6.872,6.872,0,0,1,.808,5.787c-.874,3.529-1.962,7.006-2.231,10.671a18.338,18.338,0,0,0,.569,6.3,62.413,62.413,0,0,1,1.948,13.508,18.01,18.01,0,0,0,1.06,5.244,16.8,16.8,0,0,1,.584,8.274c-.031.234-.059.468-.093.7-.085.574.122.907.739.937.471.022.941.088,1.412.105,1.269.048,1.642-.451,1.36-1.729-.215-.975-.306-1.982-.586-2.936a2.553,2.553,0,0,1,1.219-3.219c.11.895.2,1.776.337,2.65.041.26.171.639.354.706s.489-.179.738-.294a2.651,2.651,0,0,1,.525-.253c.937-.194,1.207-.822.928-1.785a17.483,17.483,0,0,1-.4-2.482.608.608,0,0,1,.1-.41,15.593,15.593,0,0,0,3.462-11.25c-.138-3.472-.554-6.932-.812-10.4a42.121,42.121,0,0,0-.217-4.32c-.474-2.63-1.157-5.223-1.748-7.832a7,7,0,0,1,1.041-4.436,30.5,30.5,0,0,1,1.6,4.229,21.212,21.212,0,0,0,2.94,6.674c.249.4.438.835.672,1.243a1.571,1.571,0,0,1-.094,1.788,1.605,1.605,0,0,0,.117,1.258,3.618,3.618,0,0,0,3.362,2.346l-.556-.9c.088-.133.266-.276.26-.409-.073-1.4-.18-2.79-.268-4.185a4.506,4.506,0,0,1-.03-1.6c.461-1.4,1.1-2.733,1.578-4.126.556-1.634,1.01-3.3,1.506-4.958a2.525,2.525,0,0,1,.394-.9,11.9,11.9,0,0,1-.166,1.651c-.286,1.2-.033,2.417-.458,3.671-.453,1.337-.182,2.918-.226,4.392,0,.088.019.178.011.265-.311,3.159.636,6.188.952,9.282.185,1.813.293,3.633.423,5.451.045.625-.055,1.32.912,1.263-.15,3.016,1.053,5.625,1.863,8.323.219.73.564,1.426.747,2.164.115.466.732,1.15-.322,1.389-.033.008-.057.142-.052.215.05.721-.417.873-1,.963-.606.094-1.158.306-1.249,1.037s.4,1.023.961,1.3a11.866,11.866,0,0,0,2.174,1.14,12.791,12.791,0,0,0,2.951.189c.111,0,.325-.409.321-.625a26.536,26.536,0,0,0-.185-3.174c-.063-.445-.461-.835-.666-1.27a3.82,3.82,0,0,1-.442-1.193c-.143-1.491-.183-2.993-.328-4.484-.155-1.609-.378-3.212-.581-4.817a2.156,2.156,0,0,1,.253-1.61,5.21,5.21,0,0,0,.279-2.392c.046-1.531.038-3.064.058-4.6a1.376,1.376,0,0,1,.227-.821,12.414,12.414,0,0,0,.335,1.318c.527,1.428,1.1,2.837,1.621,4.268.2.543.263,1.132.447,1.681a9.608,9.608,0,0,0,.518,1.032,3.3,3.3,0,0,1,.233.625c.336,1.366.616,2.748,1,4.1a9.6,9.6,0,0,1,.207,5.1,4.592,4.592,0,0,0,.115,2.326,5.967,5.967,0,0,1,.137,3.292,2.733,2.733,0,0,0,1.087,3.276,1.4,1.4,0,0,0,1.982-.2,2.88,2.88,0,0,0,.867-2.76c-.42-1.6-.189-3.237-.488-4.826-.112-.594-.47-1.144-.567-1.738a10.1,10.1,0,0,1-.16-2.486c.166-1.878.538-3.741.641-5.62a26.007,26.007,0,0,0-.334-3.489c-.08-.973-.093-1.953-.151-2.928-.031-.528-.114-1.052-.139-1.58q-.159-3.31-.3-6.623-.079-1.893-.124-3.787a1.643,1.643,0,0,1,.14-.669c.363-.833.7-1.681,1.138-2.477a11.328,11.328,0,0,0,1.056-6.449c-.075-1.03-.144-2.061-.154-3.093,0-.384.245-.77.248-1.155a10.928,10.928,0,0,0-2.056-6.453c-.325-.463-1.1-.619-1.69-.885a31.12,31.12,0,0,1-3.837-1.76,3.3,3.3,0,0,1-1.359-3.017,8.787,8.787,0,0,0-.982-4.346c-1.088-2.134-2.582-2.21-4.527-1.162-1.665.9-2.113,1.532-2.376,2.637l.607.078a8.337,8.337,0,0,0,.366,2.448c.716,1.477,1.655,2.846,2.507,4.268-.886.429-1.908.987-2.981,1.423a2.736,2.736,0,0,0-1.759,1.94,12.815,12.815,0,0,0-.506,2.414,39.666,39.666,0,0,1-1.619,9.065,34.487,34.487,0,0,0-.724,5.508c-.052.423-.132.844-.2,1.265Zm-18.945-18.2-.155-.337a26.534,26.534,0,0,1,2.738-2.252c1.012-.638,1.758-.141,1.8,1.019.017.513.039,1.027.061,1.539.03.694-.264.932-.966.8-.918-.176-1.84-.336-2.757-.52A5.551,5.551,0,0,1,716.279,764.5Z" transform="translate(788.19 1522.24)" fill="#8e8d8d"/>
  </g>
</svg>
