<svg xmlns="http://www.w3.org/2000/svg" width="282.448" height="137.064" viewBox="0 0 282.448 137.064">
  <g id="Group_943" data-name="Group 943" transform="translate(124.438 -246.548)">
    <g id="Group_781" data-name="Group 781" transform="translate(83.722 333.09)">
      <path id="Path_4035" data-name="Path 4035" d="M13897.366,3048.427a.153.153,0,0,1-.152.153h-44.936a.152.152,0,0,1-.148-.153v-6.016a.153.153,0,0,1,.148-.154h44.936a.153.153,0,0,1,.152.154Z" transform="translate(-13848.574 -3019.012)" fill="#d0d1d4"/>
      <path id="Path_4036" data-name="Path 4036" d="M13875.6,3013.69a1.256,1.256,0,0,1-1.166,1.329h-17.795a1.257,1.257,0,0,1-1.168-1.329v-10.132a1.257,1.257,0,0,1,1.168-1.329h17.795a1.256,1.256,0,0,1,1.166,1.329Z" transform="translate(-13849.976 -3002.217)" fill="#9f9f9f"/>
      <path id="Path_4037" data-name="Path 4037" d="M13911.411,3013.67a1.256,1.256,0,0,1-1.168,1.329h-17.793a1.255,1.255,0,0,1-1.168-1.329v-10.134a1.254,1.254,0,0,1,1.168-1.329h17.793a1.255,1.255,0,0,1,1.168,1.329Z" transform="translate(-13865.004 -3002.208)" fill="#9f9f9f"/>
      <path id="Path_4038" data-name="Path 4038" d="M13852.431,3028.4l1.268-2.664a2.1,2.1,0,0,1,1.725-.941h39.4a1.69,1.69,0,0,1,1.553.94l.844,2.661Z" transform="translate(-13848.702 -3011.687)" fill="#d0d1d4"/>
      <path id="Path_4039" data-name="Path 4039" d="M13874.771,3035.622a1.211,1.211,0,0,1-1.186,1.235h-20.646a1.213,1.213,0,0,1-1.189-1.235v-4.011a1.212,1.212,0,0,1,1.189-1.233h20.646a1.211,1.211,0,0,1,1.186,1.233Z" transform="translate(-13848.416 -3014.028)" fill="#9f9f9f"/>
      <path id="Path_4040" data-name="Path 4040" d="M13914,3035.49a1.193,1.193,0,0,1-1.146,1.234h-20.025a1.2,1.2,0,0,1-1.154-1.234v-4.01a1.2,1.2,0,0,1,1.154-1.234h20.025a1.193,1.193,0,0,1,1.146,1.234Z" transform="translate(-13865.169 -3013.973)" fill="#9f9f9f"/>
      <rect id="Rectangle_710" data-name="Rectangle 710" width="3.085" height="20.514" transform="translate(49.039 11.082)" fill="#9f9f9f"/>
      <rect id="Rectangle_711" data-name="Rectangle 711" width="3.085" height="20.514" transform="translate(0 11.082)" fill="#9f9f9f"/>
    </g>
    <g id="Group_782" data-name="Group 782" transform="translate(-4.887 320.62)">
      <rect id="Rectangle_712" data-name="Rectangle 712" width="56.113" height="11.825" transform="translate(3.246 11.825)" fill="#9f9f9f"/>
      <path id="Path_4041" data-name="Path 4041" d="M13779.207,3002.068h-51.475v-.7h-2.088a3.014,3.014,0,0,0,0,6.029h52.6a3.75,3.75,0,0,0,3.748-3.749v-1.584Z" transform="translate(-13722.631 -2988.387)" fill="#d0d1d4"/>
      <path id="Path_4042" data-name="Path 4042" d="M13820.34,2979h-.232v13.68h2.783v-11.13A2.551,2.551,0,0,0,13820.34,2979Z" transform="translate(-13763.531 -2979)" fill="#9f9f9f"/>
      <path id="Path_4043" data-name="Path 4043" d="M13734.627,2979a3.207,3.207,0,0,0-3.209,3.207v10.473h51.479V2979Z" transform="translate(-13726.314 -2979)" fill="#d0d1d4"/>
    </g>
    <g id="Group_788" data-name="Group 788" transform="translate(-13.442 301.466)">
      <g id="Group_787" data-name="Group 787" transform="translate(0 0)">
        <rect id="Rectangle_713" data-name="Rectangle 713" width="0.477" height="0.961" transform="translate(13.087 11.502)" fill="#9f9f9f"/>
        <rect id="Rectangle_714" data-name="Rectangle 714" width="1.087" height="0.189" transform="translate(12.764 12.068)" fill="#9f9f9f"/>
        <path id="Path_4044" data-name="Path 4044" d="M13730.438,2967.871h0a.555.555,0,0,1-.555-.556v-.033h1.111v.033A.557.557,0,0,1,13730.438,2967.871Z" transform="translate(-13717.118 -2954.93)" fill="#9f9f9f"/>
        <path id="Path_4045" data-name="Path 4045" d="M13728.829,2946.514h-3.691s-3.482,6.517-3.482,6.536c0,.295,2.385.534,5.328.534s5.328-.239,5.328-.534C13732.312,2953.031,13728.829,2946.514,13728.829,2946.514Z" transform="translate(-13713.666 -2946.216)" fill="#9f9f9f"/>
        <path id="Path_4046" data-name="Path 4046" d="M13732.312,2953.05c0,.151-.627.288-1.633.384-.266.025-.559.048-.867.067-.82.052-1.789.083-2.828.083-.066,0-.133,0-.2,0-.678,0-1.326-.018-1.918-.042-1.889-.082-3.211-.271-3.211-.49,0-.019,3.48-6.536,3.48-6.536h3.7S13732.312,2953.031,13732.312,2953.05Z" transform="translate(-13713.666 -2946.216)" fill="#9f9f9f"/>
        <path id="Path_4047" data-name="Path 4047" d="M13732.989,2954.122c-.957.093-2.258.15-3.691.15-.754,0-1.471-.016-2.117-.044-.15-3.274.939-5.963,2.488-6.07C13731.267,2948.047,13732.751,2950.717,13732.989,2954.122Z" transform="translate(-13715.978 -2946.904)" fill="#9f9f9f"/>
        <path id="Path_4048" data-name="Path 4048" d="M13733.52,2954.115c0,.282-.008.555-.027.82-.818.053-1.787.083-2.828.083-.064,0-.135,0-.2,0-.025-.29-.039-.593-.039-.9,0-2.31.693-4.182,1.547-4.182S13733.52,2951.806,13733.52,2954.115Z" transform="translate(-13717.345 -2947.651)" fill="#9f9f9f"/>
        <g id="Group_783" data-name="Group 783" transform="translate(3.476 3.833)">
          <rect id="Rectangle_715" data-name="Rectangle 715" width="0.492" height="37.228" fill="#9f9f9f"/>
        </g>
        <g id="Group_784" data-name="Group 784" transform="translate(0.892 7.367)">
          <path id="Path_4049" data-name="Path 4049" d="M13722.1,2963.095h-12.674v-.534h12.18v-3.868h.494Z" transform="translate(-13709.426 -2958.693)" fill="#9f9f9f"/>
        </g>
        <g id="Group_785" data-name="Group 785" transform="translate(11.471)">
          <path id="Path_4050" data-name="Path 4050" d="M13729.547,2946.578a3.893,3.893,0,0,1-1.779-.237,4.234,4.234,0,0,1,1.779-.225,3.959,3.959,0,0,1,1.781.237A4.237,4.237,0,0,1,13729.547,2946.578Z" transform="translate(-13727.702 -2946.048)" fill="#9f9f9f"/>
          <path id="Path_4051" data-name="Path 4051" d="M13729.5,2946c-1.018,0-1.846.134-1.846.3s.828.3,1.846.3,1.848-.133,1.848-.3S13730.521,2946,13729.5,2946Zm0,.463a.826.826,0,1,1,1.635-.165A5.89,5.89,0,0,1,13729.5,2946.463Z" transform="translate(-13727.654 -2946)" fill="#9f9f9f"/>
        </g>
        <ellipse id="Ellipse_62" data-name="Ellipse 62" cx="0.892" cy="0.967" rx="0.892" ry="0.967" transform="translate(0.001 10.535)" fill="#9f9f9f"/>
        <path id="Path_4052" data-name="Path 4052" d="M13731.42,2960.073c-.066.064-.133.126-.2.183a2.885,2.885,0,0,1-3.8,0l-.2-.183Z" transform="translate(-13716 -2951.905)" fill="#9f9f9f"/>
        <g id="Group_786" data-name="Group 786" transform="translate(3.179 3.577)">
          <rect id="Rectangle_716" data-name="Rectangle 716" width="0.477" height="0.961" transform="translate(0.789 1.439) rotate(180)" fill="#9f9f9f"/>
          <rect id="Rectangle_717" data-name="Rectangle 717" width="1.087" height="0.189" transform="translate(1.112 0.872) rotate(180)" fill="#9f9f9f"/>
          <path id="Path_4053" data-name="Path 4053" d="M13713.922,2952.163h0a.557.557,0,0,1,.557.556v.033h-1.111v-.033A.555.555,0,0,1,13713.922,2952.163Z" transform="translate(-13713.367 -2952.163)" fill="#9f9f9f"/>
        </g>
        <path id="Path_4054" data-name="Path 4054" d="M13715.268,3014.635c-1.746,0-3.162-.827-3.162-1.847a1.2,1.2,0,0,1,.135-.542l-.012-.012h-1.271l0,0a1.172,1.172,0,0,1,.143.55c0,1.021-1.42,1.847-3.164,1.847h-.041v.4h7.455v-.4h-.078Z" transform="translate(-13707.891 -2973.791)" fill="#9f9f9f"/>
        <path id="Path_4055" data-name="Path 4055" d="M13709.623,2965.569a.536.536,0,1,1-.533-.536A.535.535,0,0,1,13709.623,2965.569Z" transform="translate(-13708.167 -2953.986)" fill="#9f9f9f"/>
        <path id="Path_4056" data-name="Path 4056" d="M13714.491,2952.583c0,.079-.125.143-.275.143s-.275-.064-.275-.143.125-.143.275-.143S13714.491,2952.5,13714.491,2952.583Z" transform="translate(-13710.428 -2948.703)" fill="#9f9f9f"/>
        <path id="Path_4057" data-name="Path 4057" d="M13731.42,2960.073c-.066.064-.133.126-.2.183a7.328,7.328,0,0,1-3.8,0l-.2-.183Z" transform="translate(-13716 -2951.905)" fill="#9f9f9f"/>
        <path id="Path_4058" data-name="Path 4058" d="M13714.462,2957.837a17.349,17.349,0,0,1-.148,3.178,33.661,33.661,0,0,1,0-6.357A17.345,17.345,0,0,1,13714.462,2957.837Z" transform="translate(-13710.523 -2949.633)" fill="#9f9f9f"/>
      </g>
      <path id="Path_4059" data-name="Path 4059" d="M13713.878,3014.137s.086,1.037-.4,1.155h1.2a3.231,3.231,0,0,1-.533-1.155Z" transform="translate(-13710.235 -2974.59)" fill="#9f9f9f"/>
    </g>
    <g id="Group_793" data-name="Group 793" transform="translate(135.782 311.787)">
      <g id="Group_789" data-name="Group 789" transform="translate(11.215 1.522)">
        <path id="Path_4060" data-name="Path 4060" d="M13955.494,2972.079a3.172,3.172,0,0,1,2.715-2.95c2.439-.491,3.221.2,3.5,1.659a16.358,16.358,0,0,1-.693,6.012l.43.171a14.364,14.364,0,0,0,1.068-6.309c-.529-3.2-3.352-2.433-3.691-2.5a7.406,7.406,0,0,0-1.59.387,3.473,3.473,0,0,0-2.2,3.586Z" transform="translate(-13955.024 -2968.127)" fill="#b3b3b3"/>
        <path id="Path_4061" data-name="Path 4061" d="M13969.472,2971.022s-1.35,1.23-2.8-1.193a3.146,3.146,0,0,0,1.4,2.3C13969.271,2972.684,13969.472,2971.022,13969.472,2971.022Z" transform="translate(-13959.91 -2968.842)" fill="#b3b3b3"/>
      </g>
      <g id="Group_790" data-name="Group 790" transform="translate(0.903 1.522)">
        <path id="Path_4062" data-name="Path 4062" d="M13947.8,2972.079a3.168,3.168,0,0,0-2.713-2.95c-2.441-.491-3.221.2-3.5,1.659a16.357,16.357,0,0,0,.691,6.012l-.432.171a14.392,14.392,0,0,1-1.068-6.309c.531-3.2,3.352-2.433,3.693-2.5a7.432,7.432,0,0,1,1.59.387,3.477,3.477,0,0,1,2.2,3.586Z" transform="translate(-13938.705 -2968.127)" fill="#b3b3b3"/>
        <path id="Path_4063" data-name="Path 4063" d="M13937.258,2971.022s1.35,1.23,2.8-1.193a3.153,3.153,0,0,1-1.4,2.3C13937.459,2972.684,13937.258,2971.022,13937.258,2971.022Z" transform="translate(-13937.258 -2968.842)" fill="#b3b3b3"/>
      </g>
      <g id="Group_791" data-name="Group 791" transform="translate(0 9.292)">
        <path id="Path_4064" data-name="Path 4064" d="M13943.529,2989.315a12.959,12.959,0,0,0,.684,4.394h-8.51a14.506,14.506,0,0,0,0-8.789h8.51A12.969,12.969,0,0,0,13943.529,2989.315Z" transform="translate(-13935.703 -2982.943)" fill="#b3b3b3"/>
        <path id="Path_4065" data-name="Path 4065" d="M13943.556,2989.315c0,1.56.043,3.047.115,4.394h-4.6c.076-1.347.117-2.833.117-4.394s-.041-3.048-.117-4.4h4.6C13943.6,2986.268,13943.556,2987.754,13943.556,2989.315Z" transform="translate(-13937.111 -2982.943)" fill="#b3b3b3" style="mix-blend-mode: screen;isolation: isolate"/>
        <path id="Path_4066" data-name="Path 4066" d="M13943.307,2989.315c0,1.56.021,3.047.063,4.394h-2.418c.039-1.347.061-2.833.061-4.394s-.021-3.048-.061-4.4h2.418C13943.328,2986.268,13943.307,2987.754,13943.307,2989.315Z" transform="translate(-13937.904 -2982.943)" fill="#b3b3b3" style="mix-blend-mode: screen;isolation: isolate"/>
        <path id="Path_4067" data-name="Path 4067" d="M13943.146,2989.315c0,1.56.01,3.047.023,4.394h-.982c.016-1.347.023-2.833.023-4.394s-.008-3.048-.023-4.4h.982C13943.156,2986.268,13943.146,2987.754,13943.146,2989.315Z" transform="translate(-13938.424 -2982.943)" fill="#b3b3b3" style="mix-blend-mode: screen;isolation: isolate"/>
        <path id="Path_4068" data-name="Path 4068" d="M13943.364,2983.491a1.965,1.965,0,1,0-3.93,0Z" transform="translate(-13937.269 -2981.513)" fill="#b3b3b3"/>
        <ellipse id="Ellipse_63" data-name="Ellipse 63" cx="1.377" cy="0.637" rx="1.377" ry="0.637" transform="translate(2.71 0.401)" fill="#b3b3b3"/>
      </g>
      <g id="Group_792" data-name="Group 792" transform="translate(13.718 9.292)">
        <path id="Path_4069" data-name="Path 4069" d="M13967.165,2989.315a12.959,12.959,0,0,0,.684,4.394h-8.51a14.546,14.546,0,0,0,0-8.789h8.51A12.969,12.969,0,0,0,13967.165,2989.315Z" transform="translate(-13959.339 -2982.943)" fill="#b3b3b3"/>
        <path id="Path_4070" data-name="Path 4070" d="M13967.193,2989.315c0,1.56.043,3.047.111,4.394h-4.6c.072-1.347.113-2.833.113-4.394s-.041-3.048-.113-4.4h4.6C13967.236,2986.268,13967.193,2987.754,13967.193,2989.315Z" transform="translate(-13960.749 -2982.943)" fill="#b3b3b3" style="mix-blend-mode: screen;isolation: isolate"/>
        <path id="Path_4071" data-name="Path 4071" d="M13966.944,2989.315c0,1.56.021,3.047.063,4.394h-2.42c.041-1.347.063-2.833.063-4.394s-.021-3.048-.062-4.4h2.42C13966.966,2986.268,13966.944,2987.754,13966.944,2989.315Z" transform="translate(-13961.54 -2982.943)" fill="#b3b3b3" style="mix-blend-mode: screen;isolation: isolate"/>
        <path id="Path_4072" data-name="Path 4072" d="M13966.785,2989.315c0,1.56.01,3.047.02,4.394h-.982c.018-1.347.023-2.833.023-4.394s-.006-3.048-.023-4.4h.982C13966.795,2986.268,13966.785,2987.754,13966.785,2989.315Z" transform="translate(-13962.058 -2982.943)" fill="#b3b3b3" style="mix-blend-mode: screen;isolation: isolate"/>
        <path id="Path_4073" data-name="Path 4073" d="M13967,2983.491a1.965,1.965,0,1,0-3.93,0Z" transform="translate(-13960.902 -2981.513)" fill="#b3b3b3"/>
        <ellipse id="Ellipse_64" data-name="Ellipse 64" cx="1.377" cy="0.637" rx="1.377" ry="0.637" transform="translate(2.71 0.401)" fill="#b3b3b3"/>
      </g>
      <rect id="Rectangle_718" data-name="Rectangle 718" width="1.389" height="51.62" transform="translate(10.222 1.283)" fill="#b3b3b3"/>
      <path id="Path_4074" data-name="Path 4074" d="M13956.452,3058.732v.7h-14.025v-.7h.078c3.287,0,5.953-1.448,5.953-3.23a1.906,1.906,0,0,0-.27-.963l.006,0h2.395l.027.021a1.893,1.893,0,0,0-.258.947c0,1.783,2.662,3.23,5.951,3.23.047,0,.094,0,.143,0Z" transform="translate(-13938.523 -3002.86)" fill="#b3b3b3"/>
      <path id="Path_4075" data-name="Path 4075" d="M13955.5,3059.41v.021h-7.109v-.021l0,0a.237.237,0,0,0,.039,0c1.666,0,3.016-1.682,3.016-3.753a4.706,4.706,0,0,0-.135-1.116l0-.007h1.211l.016.023a4.588,4.588,0,0,0-.133,1.1c0,2.072,1.354,3.753,3.018,3.753l.072,0Z" transform="translate(-13941.023 -3002.86)" fill="#b3b3b3"/>
      <path id="Path_4076" data-name="Path 4076" d="M13954.875,3059.41v.021h-2.613v-.021l0,0s.006,0,.012,0c.611,0,1.109-1.682,1.109-3.753,0-.389-.02-.764-.051-1.116v-.007h.445l0,.023c-.031.347-.047.718-.047,1.1,0,2.072.5,3.753,1.107,3.753l.027,0Z" transform="translate(-13942.648 -3002.86)" fill="#b3b3b3"/>
      <path id="Path_4077" data-name="Path 4077" d="M13955.044,2966.379c0,.483-.941.875-2.107.875s-2.105-.392-2.105-.875.943-.875,2.105-.875S13955.044,2965.9,13955.044,2966.379Z" transform="translate(-13942.051 -2965.504)" fill="#b3b3b3"/>
      <path id="Path_4078" data-name="Path 4078" d="M13955.313,3046.119a2.894,2.894,0,1,1-2.893-2.895A2.893,2.893,0,0,1,13955.313,3046.119Z" transform="translate(-13941.503 -2998.115)" fill="#b3b3b3"/>
      <path id="Path_4079" data-name="Path 4079" d="M13955.15,3045.63a2.309,2.309,0,1,1-2.309-2.308A2.308,2.308,0,0,1,13955.15,3045.63Z" transform="translate(-13941.924 -2998.156)" fill="#b3b3b3"/>
      <path id="Path_4080" data-name="Path 4080" d="M13955.05,3045.02a1.958,1.958,0,1,1-1.941-1.7A1.832,1.832,0,0,1,13955.05,3045.02Z" transform="translate(-13942.188 -2998.156)" fill="#b3b3b3"/>
      <path id="Path_4081" data-name="Path 4081" d="M13954.706,2966.537c0,.216-.539.391-1.2.391s-1.2-.175-1.2-.391.539-.39,1.2-.39S13954.706,2966.322,13954.706,2966.537Z" transform="translate(-13942.667 -2965.774)" fill="#b3b3b3"/>
      <path id="Path_4082" data-name="Path 4082" d="M13955.142,2973.013a2.277,2.277,0,1,1-4.555,0Z" transform="translate(-13941.946 -2968.655)" fill="#b3b3b3"/>
      <path id="Path_4083" data-name="Path 4083" d="M13954.985,2973.151a1.608,1.608,0,0,1-3.125,0,.8.8,0,0,1,.01-.138h3.1A.645.645,0,0,1,13954.985,2973.151Z" transform="translate(-13942.482 -2968.655)" fill="#b3b3b3"/>
    </g>
    <g id="Group_824" data-name="Group 824" transform="translate(40.348 279.999)">
      <path id="Path_4129" data-name="Path 4129" d="M13423.5,3011.754l-4.246,6,54.373.1-4.512-6.218Z" transform="translate(-13413.74 -3011.634)" fill="#ffbfc0"/>
      <path id="Path_4130" data-name="Path 4130" d="M13415.507,3021.241l-5.756,8.035h66.074l-6.6-7.914Z" transform="translate(-13409.751 -3015.665)" fill="#ffbfc0"/>
    </g>
    <g id="Group_828" data-name="Group 828" transform="translate(116.548 246.548)">
      <path id="Path_4131" data-name="Path 4131" d="M13543.732,2974.907s-6.295,5.423.359,8.661h0l1.441-1.35-1.258-7.554-.543.242" transform="translate(-13541.038 -2962.671)" fill="#ffbfc0"/>
      <g id="Group_827" data-name="Group 827" transform="translate(2.154)">
        <g id="Group_825" data-name="Group 825" transform="translate(3.744 27.642)">
          <ellipse id="Ellipse_66" data-name="Ellipse 66" cx="0.989" cy="0.697" rx="0.989" ry="0.697" transform="translate(0 11.121)" fill="#9f9f9f"/>
          <path id="Path_4132" data-name="Path 4132" d="M13553.033,3021.5a.7.7,0,1,1-.684-.562A.63.63,0,0,1,13553.033,3021.5Z" transform="translate(-13551.396 -3009.73)" fill="#9f9f9f" stroke="#fcf6f4" stroke-miterlimit="10" stroke-width="0.155"/>
          <ellipse id="Ellipse_67" data-name="Ellipse 67" cx="0.989" cy="0.697" rx="0.989" ry="0.697" transform="translate(16.907 7.951)" fill="#9f9f9f"/>
          <path id="Path_4133" data-name="Path 4133" d="M13582.165,3016.041a.7.7,0,1,1-.684-.562A.632.632,0,0,1,13582.165,3016.041Z" transform="translate(-13563.617 -3007.438)" fill="#9f9f9f" stroke="#fcf6f4" stroke-miterlimit="10" stroke-width="0.155"/>
          <ellipse id="Ellipse_68" data-name="Ellipse 68" cx="0.989" cy="0.697" rx="0.989" ry="0.697" transform="translate(0 7.906)" fill="#9f9f9f"/>
          <path id="Path_4134" data-name="Path 4134" d="M13553.033,3015.963a.7.7,0,1,1-.684-.562A.631.631,0,0,1,13553.033,3015.963Z" transform="translate(-13551.396 -3007.406)" fill="#9f9f9f" stroke="#fcf6f4" stroke-miterlimit="10" stroke-width="0.155"/>
          <ellipse id="Ellipse_69" data-name="Ellipse 69" cx="0.989" cy="0.697" rx="0.989" ry="0.697" transform="translate(16.997 11.143)" fill="#9f9f9f"/>
          <path id="Path_4135" data-name="Path 4135" d="M13582.32,3021.542a.7.7,0,1,1-.682-.562A.631.631,0,0,1,13582.32,3021.542Z" transform="translate(-13563.685 -3009.746)" fill="#9f9f9f" stroke="#fcf6f4" stroke-miterlimit="10" stroke-width="0.155"/>
          <path id="Path_4136" data-name="Path 4136" d="M13569.887,3012.779l-4.736-1.836,4.682-.872a.322.322,0,0,0,.266-.354c0-.287-.355-.321-.355-.321l-8.006.225.162-8-2.1.06.232,7.89-7.955-.224s-.311.011-.379.208c-.043.127-.031.355.287.467l4.57.852-4.5,1.744s-.281.13-.266.338c.008.133.1.339.445.318l8.465-2.12.51.019,8.5,2.259c.338.021.436-.185.443-.319C13570.168,3012.909,13569.887,3012.779,13569.887,3012.779Z" transform="translate(-13551.401 -3001.625)" fill="#9f9f9f"/>
        </g>
        <g id="Group_826" data-name="Group 826">
          <rect id="Rectangle_848" data-name="Rectangle 848" width="26.081" height="27.88" rx="13.04" fill="#ffbfc0"/>
          <path id="Path_4137" data-name="Path 4137" d="M13565.118,2956.528a15.3,15.3,0,0,0-12.365,0,10.275,10.275,0,0,0-5.756,8.229l.314,6.7c3.818-1.784,10.541-1.846,11.555-1.844h.137c1.016,0,7.74.06,11.557,1.844l.314-6.7A10.269,10.269,0,0,0,13565.118,2956.528Z" transform="translate(-13545.694 -2954.505)" fill="#ffbfc0"/>
          <path id="Path_4138" data-name="Path 4138" d="M13547.619,2981.621s13.834-4.6,23.07-.045a13.612,13.612,0,0,1-7.2,6.6s-11.572,3.6-15.875-6.551Z" transform="translate(-13545.954 -2964.726)" fill="#ffbfc0"/>
        </g>
        <path id="Path_4139" data-name="Path 4139" d="M13547.7,2983.3s2.879,3.823,10.793,4.406c0,0,6.295.855,12.229-4.676,0,0-1.348,5.891-10.025,7.419C13560.692,2990.451,13551.562,2991.754,13547.7,2983.3Z" transform="translate(-13545.986 -2966.182)" fill="#d0d1d4"/>
        <path id="Path_4140" data-name="Path 4140" d="M13586.813,2974.287s6.295,5.423-.363,8.661h0l-1.437-1.349,1.262-7.554.539.243" transform="translate(-13561.006 -2962.411)" fill="#ffbfc0"/>
      </g>
      <path id="Path_4141" data-name="Path 4141" d="M13576.867,2971.136s-9.154-.671-9.828-.337c0,0-.414-.038-.271,1.126l.443,5.849s.033.586.428.722l9.471.276s.482.065.619-.279a.545.545,0,0,0,.035-.19c.01-.556-.482-6.721-.482-6.721A.5.5,0,0,0,13576.867,2971.136Z" transform="translate(-13551.82 -2961.01)" fill="#c8c8c8"/>
    </g>
    <g id="Group_842" data-name="Group 842" transform="translate(36.273 256.631)">
      <path id="Path_4142" data-name="Path 4142" d="M13509.715,3008.249l1.283,5.51s-.342.7-.922-.051l-3.648-5.252Z" transform="translate(-13446.241 -2986.845)" fill="#d0d1d4"/>
      <path id="Path_4143" data-name="Path 4143" d="M13416.427,3008.857l-1.262,5.167s.342.7.92-.051l3.648-5.252Z" transform="translate(-13407.948 -2987.043)" fill="#d0d1d4"/>
      <path id="Path_4144" data-name="Path 4144" d="M13420.395,3011.094s.275.443.787,0l2.012-2.354-1.094-.137Z" transform="translate(-13410.143 -2986.994)" fill="#d0d1d4"/>
      <path id="Path_4145" data-name="Path 4145" d="M13507.051,3010.975s-.273.444-.787,0l-2.01-2.353,1.088-.136Z" transform="translate(-13445.33 -2986.945)" fill="#d0d1d4"/>
      <path id="Path_4146" data-name="Path 4146" d="M13408.407,2981.689l3.887,1.432.07,4.229-2.867,1.637Z" transform="translate(-13405.114 -2975.701)" fill="#d0d1d4"/>
      <rect id="Rectangle_849" data-name="Rectangle 849" width="57.301" height="14.939" rx="2.86" transform="translate(7.217 0.019)" fill="#d0d1d4"/>
      <path id="Path_4147" data-name="Path 4147" d="M13442.773,2993.967a1.625,1.625,0,0,0-.537-.068l-32.066-.017c0,.921.086,3.086.086,3.086.154,2.439,1.9,2.934,3.607,2.934l22.375.1c-.133.07-.1.108.2.108l33.172-.136c1.707,0,3.455-.494,3.607-2.933,0,0,.088-2.166.088-3.087Z" transform="translate(-13405.852 -2980.817)" fill="#d0d1d4"/>
      <path id="Path_4148" data-name="Path 4148" d="M13468.58,2989.789s1.5-.1,1.723.273l2.535,2.267-62.447.053,3.016-2.389a3.245,3.245,0,0,1,1.33-.205Z" transform="translate(-13405.944 -2979.095)" fill="#d0d1d4"/>
      <path id="Path_4149" data-name="Path 4149" d="M13410.41,2994.648a.716.716,0,0,1,.459-.6,2.112,2.112,0,0,1,.787-.126.7.7,0,1,0-1.152.789" transform="translate(-13405.927 -2980.681)" fill="#d0d1d4"/>
      <path id="Path_4150" data-name="Path 4150" d="M13508.083,2976.682l.057-3.473a1.8,1.8,0,0,0-1.488-1.66l-1.5.033-4.932,10.625,6.107,2.691h1.439l3.217.414,1.094-7.776Z" transform="translate(-13443.635 -2971.446)" fill="#d0d1d4"/>
      <path id="Path_4151" data-name="Path 4151" d="M13418.21,2971.372l4.605,10.642h-7.061a1.184,1.184,0,0,0-1.043.505l-.406-1.494.463-2.233.066-2.457v-2.61s-.283-1.995,1.406-2.3Z" transform="translate(-13407.588 -2971.372)" fill="#d0d1d4"/>
      <path id="Path_4152" data-name="Path 4152" d="M13473.754,2982.051a1.855,1.855,0,0,0-1.818-1.023,1.94,1.94,0,0,0-2.115,2.115l-.207,4.161-.088,3.854c-.346,3.547-4.7,3-4.7,3h-52.887s-4.352.546-4.7-3l-.086-3.854-.207-4.161a1.941,1.941,0,0,0-2.117-2.115,1.654,1.654,0,0,0-1.818,1.023,7.569,7.569,0,0,0-.262,2.814s-.033,10.761,4.613,11.955a27.6,27.6,0,0,0,3.848.409l26.521.032v0h1.457v0l26.367-.032a27.558,27.558,0,0,0,3.848-.409c4.646-1.194,4.611-11.955,4.611-11.955A7.842,7.842,0,0,0,13473.754,2982.051Z" transform="translate(-13402.73 -2975.415)" fill="#d0d1d4"/>
      <path id="Path_4153" data-name="Path 4153" d="M13508.494,2991.186l1.352.18s.783.225.717-.81l.475-3.866s.154-.417-.346-.505c-.111-.02-.418-.091-.578-.1l-.652-.085S13510.99,2990.107,13508.494,2991.186Z" transform="translate(-13447.108 -2977.509)" fill="#d0d1d4" opacity="0.33"/>
      <g id="Group_839" data-name="Group 839" transform="translate(8.519 0.02)">
        <g id="Group_829" data-name="Group 829" transform="translate(5.539)">
          <path id="Path_4154" data-name="Path 4154" d="M13426.953,2971.486a37.693,37.693,0,0,1,.182,5.306" transform="translate(-13426.953 -2971.44)" fill="#d0d1d4"/>
          <path id="Path_4155" data-name="Path 4155" d="M13439.815,2971.446a39.168,39.168,0,0,1,.18,5.374" transform="translate(-13432.351 -2971.423)" fill="#d0d1d4"/>
          <path id="Path_4156" data-name="Path 4156" d="M13452.442,2971.407a38.472,38.472,0,0,1,.18,5.374" transform="translate(-13437.648 -2971.407)" fill="#d0d1d4"/>
          <path id="Path_4157" data-name="Path 4157" d="M13465.418,2971.523a38.816,38.816,0,0,1,.18,5.374" transform="translate(-13443.09 -2971.456)" fill="#d0d1d4"/>
          <path id="Path_4158" data-name="Path 4158" d="M13477.2,2971.988a39,39,0,0,1,.182,5.374" transform="translate(-13448.035 -2971.651)" fill="#d0d1d4"/>
          <path id="Path_4159" data-name="Path 4159" d="M13489.745,2972.143a38.824,38.824,0,0,1,.18,5.374" transform="translate(-13453.301 -2971.716)" fill="#d0d1d4"/>
          <path id="Path_4160" data-name="Path 4160" d="M13501.885,2971.472a38.975,38.975,0,0,1,.178,5.374" transform="translate(-13458.394 -2971.435)" fill="#d0d1d4"/>
        </g>
        <g id="Group_830" data-name="Group 830" transform="translate(5.719 5.036)">
          <path id="Path_4161" data-name="Path 4161" d="M13427.263,2980.163a38.023,38.023,0,0,1,.182,5.306" transform="translate(-13427.263 -2980.117)" fill="#d0d1d4"/>
          <path id="Path_4162" data-name="Path 4162" d="M13440.124,2980.123a39,39,0,0,1,.182,5.374" transform="translate(-13432.659 -2980.1)" fill="#d0d1d4"/>
          <path id="Path_4163" data-name="Path 4163" d="M13452.751,2980.084a38.657,38.657,0,0,1,.182,5.374" transform="translate(-13437.957 -2980.084)" fill="#d0d1d4"/>
          <path id="Path_4164" data-name="Path 4164" d="M13465.729,2980.2a38.819,38.819,0,0,1,.18,5.374" transform="translate(-13443.4 -2980.134)" fill="#d0d1d4"/>
          <path id="Path_4165" data-name="Path 4165" d="M13477.507,2980.666a38.287,38.287,0,0,1,.178,5.374" transform="translate(-13448.346 -2980.328)" fill="#d0d1d4"/>
          <path id="Path_4166" data-name="Path 4166" d="M13490.056,2980.82a39.163,39.163,0,0,1,.18,5.374" transform="translate(-13453.611 -2980.393)" fill="#d0d1d4"/>
          <path id="Path_4167" data-name="Path 4167" d="M13502.2,2980.149a39.166,39.166,0,0,1,.18,5.374" transform="translate(-13458.704 -2980.112)" fill="#d0d1d4"/>
        </g>
        <g id="Group_831" data-name="Group 831" transform="translate(0 5.623)">
          <path id="Path_4168" data-name="Path 4168" d="M13417.409,2981.229a38.863,38.863,0,0,1,5.377-.062" transform="translate(-13417.409 -2981.096)" fill="#d0d1d4"/>
        </g>
        <g id="Group_832" data-name="Group 832" transform="translate(5.756 5.476)">
          <path id="Path_4169" data-name="Path 4169" d="M13427.326,2980.943s4.242-.223,7.936-.007" transform="translate(-13427.326 -2980.842)" fill="#d0d1d4"/>
        </g>
        <g id="Group_833" data-name="Group 833" transform="translate(13.445 5.47)">
          <path id="Path_4170" data-name="Path 4170" d="M13440.574,2980.939a74.418,74.418,0,0,1,7.453-.017" transform="translate(-13440.574 -2980.833)" fill="#d0d1d4"/>
        </g>
        <g id="Group_834" data-name="Group 834" transform="translate(20.775 5.515)">
          <path id="Path_4171" data-name="Path 4171" d="M13453.2,2981.016a74.416,74.416,0,0,1,7.453-.018" transform="translate(-13453.203 -2980.909)" fill="#d0d1d4"/>
        </g>
        <g id="Group_835" data-name="Group 835" transform="translate(28.195 5.464)">
          <path id="Path_4172" data-name="Path 4172" d="M13465.986,2980.934a64.848,64.848,0,0,1,6.955-.028" transform="translate(-13465.986 -2980.822)" fill="#d0d1d4"/>
        </g>
        <g id="Group_836" data-name="Group 836" transform="translate(35.119 5.419)">
          <path id="Path_4173" data-name="Path 4173" d="M13477.917,2980.857a64.748,64.748,0,0,1,6.955-.029" transform="translate(-13477.917 -2980.744)" fill="#d0d1d4"/>
        </g>
        <g id="Group_837" data-name="Group 837" transform="translate(42.179 5.509)">
          <path id="Path_4174" data-name="Path 4174" d="M13490.08,2981.012a64.905,64.905,0,0,1,6.955-.029" transform="translate(-13490.08 -2980.899)" fill="#d0d1d4"/>
        </g>
        <g id="Group_838" data-name="Group 838" transform="translate(49.149 5.509)">
          <path id="Path_4175" data-name="Path 4175" d="M13502.089,2981.012a64.935,64.935,0,0,1,6.957-.029" transform="translate(-13502.089 -2980.899)" fill="#d0d1d4"/>
        </g>
      </g>
      <g id="Group_840" data-name="Group 840" transform="translate(13.817 5.135)" opacity="0.47">
        <path id="Path_4176" data-name="Path 4176" d="M13427.558,2980.732a.511.511,0,1,1-.51-.512A.51.51,0,0,1,13427.558,2980.732Z" transform="translate(-13426.536 -2980.219)" fill="#d0d1d4"/>
        <circle id="Ellipse_70" data-name="Ellipse 70" cx="0.512" cy="0.512" r="0.512" transform="translate(7.367 0)" fill="#d0d1d4"/>
        <circle id="Ellipse_71" data-name="Ellipse 71" cx="0.512" cy="0.512" r="0.512" transform="translate(14.735 0)" fill="#d0d1d4"/>
        <circle id="Ellipse_72" data-name="Ellipse 72" cx="0.512" cy="0.512" r="0.512" transform="translate(22.102 0)" fill="#d0d1d4"/>
        <circle id="Ellipse_73" data-name="Ellipse 73" cx="0.512" cy="0.512" r="0.512" transform="translate(29.06 0)" fill="#d0d1d4"/>
        <path id="Path_4177" data-name="Path 4177" d="M13490.322,2980.732a.513.513,0,1,1-.514-.512A.515.515,0,0,1,13490.322,2980.732Z" transform="translate(-13452.869 -2980.219)" fill="#d0d1d4"/>
        <path id="Path_4178" data-name="Path 4178" d="M13502.311,2980.732a.513.513,0,1,1-.514-.512A.516.516,0,0,1,13502.311,2980.732Z" transform="translate(-13457.901 -2980.219)" fill="#d0d1d4"/>
      </g>
      <path id="Path_4179" data-name="Path 4179" d="M13504.615,2985.445s-8.947-1.387-9.666-1.231c0,0-.4-.068-.434.732l-.437,3.992a.5.5,0,0,0,.311.53l9.324,1.154s.467.093.652-.125a.253.253,0,0,0,.064-.125c.094-.374.531-4.584.531-4.584S13504.992,2985.536,13504.615,2985.445Z" transform="translate(-13441.058 -2976.756)" fill="#b3b3b3"/>
      <g id="Group_841" data-name="Group 841" transform="translate(8.47 6.559)">
        <path id="Path_4180" data-name="Path 4180" d="M13427.374,2982.672s-9.055.227-9.732.508c0,0-.408.006-.3.8l.281,4.006a.5.5,0,0,0,.4.466l9.379-.523s.479.009.621-.24a.29.29,0,0,0,.041-.133c.027-.385-.293-4.6-.293-4.6S13427.759,2982.7,13427.374,2982.672Z" transform="translate(-13417.324 -2982.672)" fill="#b3b3b3"/>
      </g>
    </g>
    <g id="Group_918" data-name="Group 918" transform="translate(-29.52 259.828)">
      <path id="Path_4268" data-name="Path 4268" d="M13262.976,3010.917c0,.634,0,1.355,0,1.431a16.545,16.545,0,0,0,1.54,2.2c.062-.006.036-2.226.017-3.633Z" transform="translate(-13230.082 -2995.294)" fill="#fee6a6"/>
      <path id="Path_4269" data-name="Path 4269" d="M13209.063,3010.917c-.021,1.407-.043,3.627.018,3.633a16.632,16.632,0,0,0,1.539-2.2c0-.075,0-.8,0-1.431Z" transform="translate(-13207.453 -2995.294)" fill="#fee6a6"/>
      <path id="Path_4270" data-name="Path 4270" d="M13242.365,2999.233v-13.947c0-.481-2.592-1.33-3.051-1.284s-1.309.207-1.309.207h-27.342s-.85-.161-1.309-.207-3.049.8-3.049,1.284v13.947a.364.364,0,0,0,.277.377v4.83c0,.106-.006.527.229.527h1.164a29.033,29.033,0,0,0,2.525-3.767,9.781,9.781,0,0,0,.072-1.577h27.525a10.747,10.747,0,0,0,.066,1.577,29.256,29.256,0,0,0,2.529,3.767h1.166c.23,0,.23-.421.23-.527v-4.83A.369.369,0,0,0,13242.365,2999.233Zm-32.895,1.821a16.492,16.492,0,0,1-1.537,2.2c-.061-.006-.039-2.226-.02-3.634h1.559C13209.473,3000.257,13209.473,3000.978,13209.471,3001.054Zm31.27,2.2a16.509,16.509,0,0,1-1.541-2.2c0-.076,0-.8,0-1.431h1.559C13240.777,3001.031,13240.8,3003.25,13240.74,3003.257Z" transform="translate(-13206.307 -2984)" fill="#fee6a6"/>
    </g>
    <g id="Group_919" data-name="Group 919" transform="translate(-68.408 262.73)">
      <path id="Path_4271" data-name="Path 4271" d="M13195.975,3015.917c0,.635,0,1.355,0,1.431a16.671,16.671,0,0,0,1.542,2.2c.059-.006.036-2.226.018-3.634Z" transform="translate(-13163.081 -3000.294)" fill="#fee6a6"/>
      <path id="Path_4272" data-name="Path 4272" d="M13142.063,3015.917c-.019,1.408-.043,3.627.019,3.634a16.567,16.567,0,0,0,1.539-2.2c0-.076,0-.8,0-1.431Z" transform="translate(-13140.455 -3000.294)" fill="#fee6a6"/>
      <path id="Path_4273" data-name="Path 4273" d="M13175.366,3004.233v-13.947c0-.481-2.593-1.331-3.052-1.285s-1.309.207-1.309.207h-27.342s-.85-.161-1.309-.207-3.049.8-3.049,1.285v13.947a.363.363,0,0,0,.275.377v4.831c0,.105,0,.526.229.526h1.165a29.3,29.3,0,0,0,2.529-3.767,10.4,10.4,0,0,0,.068-1.577h27.526a10.6,10.6,0,0,0,.066,1.577,29.309,29.309,0,0,0,2.53,3.767h1.166c.229,0,.229-.421.229-.526v-4.831A.369.369,0,0,0,13175.366,3004.233Zm-32.895,1.821a16.5,16.5,0,0,1-1.539,2.2c-.06-.007-.038-2.226-.019-3.633h1.56C13142.478,3005.257,13142.478,3005.979,13142.472,3006.054Zm31.268,2.2a16.781,16.781,0,0,1-1.541-2.2c0-.076,0-.8,0-1.431h1.561C13173.778,3006.031,13173.8,3008.25,13173.739,3008.257Z" transform="translate(-13139.307 -2989)" fill="#fee6a6"/>
    </g>
    <path id="Path_4274" data-name="Path 4274" d="M13750.794,3039.585h-4.455v-5.853a2.58,2.58,0,0,0-2.58-2.577h-16.43a2.577,2.577,0,1,1-5.154,0h-16.43a2.578,2.578,0,0,1-5.156,0h-16.432a2.576,2.576,0,0,0-2.576,2.577v5.853h-4.457c-1.322,0-6.123.712-6.123,2.309v17.774c0,1.462-.012,2.5,1.318,2.5h1.285v.916a.764.764,0,0,0,.725.8h4.041a.76.76,0,0,0,.721-.8v-.916h69.734v.916a.761.761,0,0,0,.723.8h4.043a.763.763,0,0,0,.723-.8v-.916h1.285c1.33,0,1.316-1.034,1.316-2.5v-17.774C13756.915,3040.3,13752.116,3039.585,13750.794,3039.585Z" transform="translate(-13705.854 -2680.264)" fill="#b3b3b3"/>
    <g id="Group_920" data-name="Group 920" transform="translate(-96.207 306.205)">
      <rect id="Rectangle_876" data-name="Rectangle 876" width="8.197" height="6.669" transform="translate(14.589 6.422)" fill="none"/>
      <path id="Path_4276" data-name="Path 4276" d="M13084.465,3037.065v9.516l8.651-2.422v-7.094Z" transform="translate(-13081.494 -3030.643)" fill="none"/>
      <path id="Path_4277" data-name="Path 4277" d="M13123.723,3041.838h6.139v-9.291l-6.139,2.186Z" transform="translate(-13097.968 -3028.748)" fill="none"/>
      <path id="Path_4278" data-name="Path 4278" d="M13092.49,3026l-13.142,3.68v29.687h2.2l.771-.606v-13.247h8.65v9.13h2.2l.771-.608v-8.522h8.2v13.854h2.2l.77-.606v-13.684l6.142-2.186v11.752h2.2l.77-.608V3026Zm-10.172,15.938v-9.515h8.65v7.094Zm11.62-2.847v-6.668h8.2v6.668Zm17.307,0h-6.142v-7.105l6.142-2.185Z" transform="translate(-13079.349 -3026)" fill="#ccc"/>
    </g>
    <g id="Group_921" data-name="Group 921" transform="translate(-124.439 299.24)">
      <rect id="Rectangle_877" data-name="Rectangle 877" width="5.635" height="4.465" transform="translate(10.029 4.3)" fill="none"/>
      <path id="Path_4279" data-name="Path 4279" d="M13034.225,3021.408v6.371l5.945-1.621v-4.75Z" transform="translate(-13032.184 -3017.109)" fill="none"/>
      <path id="Path_4280" data-name="Path 4280" d="M13061.212,3024.6h4.222v-6.22l-4.222,1.463Z" transform="translate(-13043.506 -3015.84)" fill="none"/>
      <path id="Path_4281" data-name="Path 4281" d="M13039.741,3014l-9.033,2.464v19.875h1.51l.531-.406v-8.869h5.946v6.113h1.513l.528-.408v-5.705h5.636v9.274h1.51l.532-.406v-9.161l4.221-1.464v7.869h1.511l.53-.408V3014Zm-6.992,10.671V3018.3h5.946v4.75Zm7.987-1.907V3018.3h5.636v4.464Zm11.9,0h-4.221v-4.757l4.221-1.463Z" transform="translate(-13030.708 -3014)" fill="#ccc"/>
    </g>
    <path id="Path_4282" data-name="Path 4282" d="M13642.957,3040.914l-.053-1.7a1.482,1.482,0,0,1-.092-2.748l-.752-23.533a1.481,1.481,0,0,1,.377-2.914,1.468,1.468,0,0,1,.961.356c7.174-4.639,16.885-10.95,18.17-11.857.047-.11.1-.219.15-.326l-1.145-1.492a2.3,2.3,0,1,1,3.656-2.8l1.143,1.49a5.259,5.259,0,0,1,5.23,1.959l2.336,3.046s-.133,1.3-3.6,3.959-4.756,2.446-4.756,2.446l-2.336-3.046a5.233,5.233,0,0,1-1.025-3.979c-.518.348-1.221.809-2.043,1.349-1.619,1.065-3.881,2.54-6.721,4.387-3.408,2.213-6.844,4.438-8.6,5.573a1.524,1.524,0,0,1,.061.415,1.484,1.484,0,0,1-1.014,1.406l.752,23.457a1.481,1.481,0,0,1,.1,2.9l.051,1.649c3.994.027,7.172.466,7.172,1v1c0,.555-3.387,1.006-7.568,1.006s-7.568-.451-7.568-1.006v-1C13635.84,3041.383,13638.986,3040.946,13642.957,3040.914Z" transform="translate(-13691.101 -2664.255)" fill="#9f9f9f"/>
    <g id="Group_940" data-name="Group 940" transform="translate(-86.696 294.016)">
      <path id="Path_4318" data-name="Path 4318" d="M13101.959,3010.617s-.057-2.489-1.159-3.3a10.85,10.85,0,0,1,3.3,2.49s.115-3.474-.522-4.806a34.278,34.278,0,0,1,4,6.022,12.967,12.967,0,0,1,2.779-3.127,16.6,16.6,0,0,0-.579,3.416l-3.356,3.069-4.168-2.431Z" transform="translate(-13097.86 -3005)" fill="#32a950"/>
      <path id="Path_4319" data-name="Path 4319" d="M13095.742,3017.981c-.179-.058,5.361-4.153,8.372-.274,0,0,2.2-3.358,8.341-2.779l.4.057-5.558,4.574-6.02-.115S13096.608,3018.271,13095.742,3017.981Z" transform="translate(-13095.738 -3009.138)" fill="#32a950"/>
      <path id="Path_4320" data-name="Path 4320" d="M13111.166,3022.658h-6.775v1.447h.705a.2.2,0,0,0-.012.058l1.391,3.011,3.127-.058.953-3.011h.611Z" transform="translate(-13099.367 -3012.409)" fill="#32a950"/>
    </g>
    <g id="Group_941" data-name="Group 941" transform="translate(-13.004 247.724)">
      <path id="Path_4321" data-name="Path 4321" d="M13239.379,2967.431a4.907,4.907,0,0,1,.875-3.206,2.451,2.451,0,0,1,2.381-1.04,23.644,23.644,0,0,0-3.15,4.647" transform="translate(-13236.692 -2963.147)" fill="#32a950"/>
      <path id="Path_4322" data-name="Path 4322" d="M13237.178,2968.889a4.261,4.261,0,0,0-2.418-3.808,1.485,1.485,0,0,1,2.125.507,4.787,4.787,0,0,1,.713,2.922" transform="translate(-13234.76 -2963.845)" fill="#32a950"/>
      <path id="Path_4323" data-name="Path 4323" d="M13238.693,2973.1a.476.476,0,0,0,.007-.086l-.141-2.558h.124c.052,0,.1-.061.1-.134s-.046-.135-.1-.135h-1.088c-.052,0-.1.061-.1.135s.044.134.1.134h.151l-.157,2.54c0,.014.006.025.006.038a2.08,2.08,0,0,0-1.031,1.93v1.771c0,.449.13,2.612.438,2.639a9.076,9.076,0,0,0,1.053.063s.909-.036,1.123-.062c.3-.038.407-2.194.407-2.639v-1.771A2.169,2.169,0,0,0,13238.693,2973.1Z" transform="translate(-13235.518 -2966.103)" fill="#32a950"/>
    </g>
    <g id="Group_942" data-name="Group 942" transform="translate(49.327 351.839)">
      <path id="Path_4324" data-name="Path 4324" d="M13825.934,3075.566l-.312-6.976-.207-.724a16.284,16.284,0,0,1,12.25,0l-.205.724-.312,6.976C13835.676,3077.73,13827.406,3077.8,13825.934,3075.566Z" transform="translate(-13819.97 -3047.004)" fill="#32a950" fill-rule="evenodd"/>
      <path id="Path_4325" data-name="Path 4325" d="M13832.1,3067.272a12.089,12.089,0,0,0-5.348,1.022,13.9,13.9,0,0,0,5.348.753h0a13.9,13.9,0,0,0,5.348-.753A12.083,12.083,0,0,0,13832.1,3067.272Zm0,1.276a13.457,13.457,0,0,1-3.514-.329,14.04,14.04,0,0,1,7.027,0,13.448,13.448,0,0,1-3.514.329Z" transform="translate(-13820.532 -3047.257)" fill="#32a950" fill-rule="evenodd"/>
      <path id="Path_4326" data-name="Path 4326" d="M13833.846,3053.453c-1.115-4.267.166-7.361.143-10.829-.018-2.67-.979-6.475-.906-8.4-2.137,5.236-2.711,14.679.5,19.656Z" transform="translate(-13822.45 -3033.392)" fill="#32a950" fill-rule="evenodd"/>
      <path id="Path_4327" data-name="Path 4327" d="M13833.092,3037.78a28.116,28.116,0,0,0,.285,15.873A70.89,70.89,0,0,1,13833.092,3037.78Z" transform="translate(-13822.771 -3034.882)" fill="#32a950" fill-rule="evenodd"/>
      <path id="Path_4328" data-name="Path 4328" d="M13836.666,3056.1c2.289-4.438,5.705-6.079,8.313-9.021,2.006-2.265,4.074-6.2,5.584-7.766-5.756,2.8-13.383,10.328-14.439,16.954Z" transform="translate(-13824.463 -3035.527)" fill="#32a950" fill-rule="evenodd"/>
      <path id="Path_4329" data-name="Path 4329" d="M13849.359,3041.909a31.877,31.877,0,0,0-11.764,13.6A80.528,80.528,0,0,1,13849.359,3041.909Z" transform="translate(-13825.083 -3036.615)" fill="#32a950" fill-rule="evenodd"/>
      <path id="Path_4330" data-name="Path 4330" d="M13827.288,3053.651c-1.7-4.924-2.9-6.643-4.971-11.433-1.094-2.521-1.529-6.643-4.592-9.43,7.838,2.766,10.34,13.808,10.34,21.056Z" transform="translate(-13816.742 -3032.788)" fill="#32a950" fill-rule="evenodd"/>
      <path id="Path_4331" data-name="Path 4331" d="M13828.511,3053.5q-1.131-14.543-8.732-19.376C13824.478,3038.991,13826.993,3045.8,13828.511,3053.5Z" transform="translate(-13817.604 -3033.349)" fill="#32a950" fill-rule="evenodd"/>
      <path id="Path_4332" data-name="Path 4332" d="M13836.121,3056.173c1.418-4.118,2.424-5.555,4.158-9.562.916-2.109,1.279-5.558,3.838-7.889-6.553,2.313-8.643,11.55-8.643,17.612Z" transform="translate(-13824.192 -3035.278)" fill="#32a950" fill-rule="evenodd"/>
      <path id="Path_4333" data-name="Path 4333" d="M13836.072,3056.05q.943-12.163,7.3-16.206C13839.445,3043.912,13837.34,3049.608,13836.072,3056.05Z" transform="translate(-13824.444 -3035.749)" fill="#32a950" fill-rule="evenodd"/>
      <path id="Path_4334" data-name="Path 4334" d="M13837.813,3061.116c1.957-2.884,4.465-3.735,6.518-5.555,1.578-1.4,3.346-3.957,4.521-4.914-4.227,1.456-10.146,6.035-11.432,10.543Z" transform="translate(-13825.011 -3040.281)" fill="#32a950" fill-rule="evenodd"/>
      <path id="Path_4335" data-name="Path 4335" d="M13848.007,3052.18a22.25,22.25,0,0,0-9.3,8.441A55.954,55.954,0,0,1,13848.007,3052.18Z" transform="translate(-13825.551 -3040.924)" fill="#32a950" fill-rule="evenodd"/>
      <path id="Path_4336" data-name="Path 4336" d="M13834.64,3057.492c-.533-3.447.721-5.777.98-8.509.2-2.1-.252-5.173-.039-6.679-2.1,3.949-3.311,11.334-1.18,15.507Z" transform="translate(-13823.273 -3036.781)" fill="#32a950" fill-rule="evenodd"/>
      <path id="Path_4337" data-name="Path 4337" d="M13835.448,3045.06a22.278,22.278,0,0,0-1.047,12.513A56.142,56.142,0,0,1,13835.448,3045.06Z" transform="translate(-13823.553 -3037.937)" fill="#32a950" fill-rule="evenodd"/>
      <path id="Path_4338" data-name="Path 4338" d="M13826,3060.126c-1.664-3.061-4.076-4.154-5.939-6.167-1.434-1.55-2.943-4.265-4.02-5.336,4.061,1.865,9.5,7,10.346,11.614Z" transform="translate(-13816.038 -3039.432)" fill="#32a950" fill-rule="evenodd"/>
      <path id="Path_4339" data-name="Path 4339" d="M13818.268,3050.387a22.263,22.263,0,0,1,8.422,9.311A56.188,56.188,0,0,0,13818.268,3050.387Z" transform="translate(-13816.973 -3040.172)" fill="#32a950" fill-rule="evenodd"/>
    </g>
  </g>
</svg>
