<svg xmlns="http://www.w3.org/2000/svg" xmlns:xlink="http://www.w3.org/1999/xlink" width="288.07" height="133.058" viewBox="0 0 288.07 133.058">
  <defs>
    <clipPath id="clip-path">
      <path id="Path_1895" data-name="Path 1895" d="M570.012,454l37.025,28.1.992,103.8L531.5,587.058l.165-111.57Z" transform="translate(-531.5 -454)" fill="#acd4e6" clip-rule="evenodd"/>
    </clipPath>
  </defs>
  <g id="Group_2860" data-name="Group 2860" transform="translate(-1108.331 -1900.46)">
    <g id="Group_349" data-name="Group 349" transform="translate(1206.127 1952.663)">
      <path id="Path_1919" data-name="Path 1919" d="M548.668,781.061c1.316.4,2.289.748,2.333,2.492.049,1.961.237,5.809.513,8.379s1.037,8.071,1.083,9.808.229,5.442.183,5.853-.365.365-.228,1.052a2.135,2.135,0,0,1-.228,1.783,1.241,1.241,0,0,0-.183,1.052l3.2-.137-.229,12.666-5.024,3.886a3.449,3.449,0,0,0-1.417-.588V811.876l.57-.086a4.388,4.388,0,0,1,.059-1.492,3.633,3.633,0,0,0,0-1.791s-.209.63-.629.708Zm-7.07-13.836a3.269,3.269,0,0,1,3.232,2.5,24.241,24.241,0,0,1,.1,3.531,2.245,2.245,0,0,1,.1,1.765,1.3,1.3,0,0,1-1.322.637,13.223,13.223,0,0,0-.245,1.912,1.7,1.7,0,0,0,.588,1.569,18.09,18.09,0,0,0,4.114,1.765c.174.054.344.1.507.156v28.153a.472.472,0,0,1-.086.008,2.39,2.39,0,0,0-.656.06,6.6,6.6,0,0,1,.179,1.374c0,.656-.06,1.313-.06,1.313l.623-.093v15.433a1.348,1.348,0,0,0-.135-.006,9.989,9.989,0,0,0-1.1.045s.2,3.763.2,5.247-.131,3.844-.785,4.935a3.67,3.67,0,0,0-.741,2.4c0,.96,1.4,3.537,1.352,4.411s-.262,2.227-1.7,2.183-2.529-.611-2.529-1.791.174-1.922-.305-2.358.261-1.485-.567-2.62.087-1.266-.131-2.315a34.285,34.285,0,0,1,.262-5.5c.087-1.266-.131-2.751-.785-8.167s-1.047-7.773-1.222-8.952-.48-2.664-.48-2.664-.829,5.066-1.527,6.332-1.439,7.556-1.657,9.39-.088,7.25-.524,7.817a4.578,4.578,0,0,0-.654,1.354s1.134.655,1.134,1.572-.829,1.66-.785,2.838-.087,2.184-.567,2.446-.393,2.271-1,2.969a2.71,2.71,0,0,1-2.835.918c-1.221-.35-1.221-1.966-.61-3.494s1.352-2.577,1.134-3.188a2.014,2.014,0,0,1,.174-2.14c.61-.611-.044-1.266-.436-1.791s-.305-2.969-.349-4.28.131-7.861.044-10.263-.305-9.607.043-11.616a10.318,10.318,0,0,0,.043-3.494s-.785.393-.785-.349a4.6,4.6,0,0,0-.043-2.183c-.349-1.31-.436-2.533-.829-3.538s-.479-2.708,0-3.231-.218-3.407.218-5.591a53.582,53.582,0,0,0,.785-7.555c.043-1.878.131-3.232,2.573-3.843s4.23-1.31,4.58-1.835a4.852,4.852,0,0,0,.393-2.489,10.8,10.8,0,0,1-.131-1.441c0-.349-.7.175-.872-.48a6.089,6.089,0,0,1-.161-2.188.386.386,0,0,1,.378-.083,21.808,21.808,0,0,1,.009-2.98C537.841,768.442,539.175,767.314,541.6,767.225Zm6.147,45.075" transform="translate(-529.643 -767.225)" fill="#9f9f9f" fill-rule="evenodd"/>
      <path id="Path_1920" data-name="Path 1920" d="M532.016,826.355a1.759,1.759,0,0,1,0-1.875c.646-.841,2.131-.194,2.131-.194a3.11,3.11,0,0,0-1.614.452C531.952,825.192,532.146,825.515,532.016,826.355Z" transform="translate(-530.377 -787.224)" fill="#9f9f9f" fill-rule="evenodd"/>
      <path id="Path_1921" data-name="Path 1921" d="M559.972,830s0-1.1,1.485-1.1a1.651,1.651,0,0,1,1.744,1.164,3.142,3.142,0,0,0-1.788-.574C560.424,829.524,560.409,829.538,559.972,830Z" transform="translate(-540.317 -788.933)" fill="#9f9f9f" fill-rule="evenodd"/>
      <path id="Path_1922" data-name="Path 1922" d="M546.564,784.412a1.321,1.321,0,0,0,.338.609c-.3,1.617-.977,6.435-1.237,10a98.685,98.685,0,0,0,.447,11.923,16.571,16.571,0,0,1-2.382.1,26.023,26.023,0,0,1-5.457-1.143,18.447,18.447,0,0,0,1.091-2.534A74.957,74.957,0,0,0,541,790.4a23.81,23.81,0,0,0-.019-4.755.914.914,0,0,0,.182-.193,2.321,2.321,0,0,0,.276-.738,4.121,4.121,0,0,0,2.737,2.209C544.977,786.921,546.067,785.337,546.564,784.412Z" transform="translate(-532.68 -773.274)" fill="#9f9f9f" fill-rule="evenodd"/>
      <path id="Path_1923" data-name="Path 1923" d="M544.4,789.66a2.28,2.28,0,0,1,1.736-.993,2.429,2.429,0,0,1,1.787.993s-1.191-.248-1.141.546.446,4.968.446,7.7.2,9.835-.1,11.177-1.241,1.838-1.439.1-.148-11.078-.1-12.867a55.222,55.222,0,0,0,.149-6.061A.974.974,0,0,0,544.4,789.66Z" transform="translate(-534.836 -774.771)" fill="#9f9f9f" fill-rule="evenodd" opacity="0.5"/>
    </g>
    <g id="Group_340" data-name="Group 340" transform="translate(1108.331 1900.46)">
      <g id="Group_339" data-name="Group 339" clip-path="url(#clip-path)">
        <path id="Path_1894" data-name="Path 1894" d="M465.835,553.175v3.862h-13.8v19.416h13.8v3.862h-13.8v3.9h13.8v3.867h-13.8v5.066h17.639V539.464H452.036v13.711Zm-31.149-13.711v53.679h17.351v-5.066h-13.8V584.21h13.8v-3.9h-13.8v-3.862h13.8V557.036h-13.8v-3.862h13.8V539.464Zm-3.068-18.9v8.243c-.371-.2-.741-.386-1.112-.582v3.625l1.112.536v8.253l-1.112-.468v3.62c.371.149.741.288,1.112.438v8.232L430.5,552.1v15.554c.371.077.741.149,1.112.221v8.243l-1.112-.149v17.171H434.4V539.464h.288V518.123l-4.18-2.569v4.361ZM426.69,554.59v8.578c-.376-.093-.746-.175-1.117-.262v3.758c.371.072.741.149,1.117.221v8.573l-1.117-.149v3.753c.371.041.741.077,1.117.118v8.573c-.376-.016-.746-.026-1.117-.046v5.437H430.5V575.973l-1.122-.154v-8.387c.376.077.746.149,1.122.226V552.1l-1.122-.366v-8.392c.376.155.746.294,1.122.443v-3.62l-1.122-.474v-8.387l1.122.541v-3.625l-1.122-.572v-8.392l1.122.654v-4.361l-4.933-3.032v41.74C425.943,554.374,426.314,554.482,426.69,554.59Zm-4.927-39.747v8.886l-1.117-.566v16.769c.376.144.746.289,1.117.438v8.887c-.371-.124-.741-.247-1.117-.371V552.8l1.117.33v8.886c-.371-.082-.741-.165-1.117-.252v31.375h4.927v-5.437l-1.117-.047v-8.722l1.117.124v-3.753l-1.117-.154v-8.722l1.117.231v-3.758c-.371-.082-.741-.165-1.117-.258v-8.717c.376.108.746.221,1.117.33v-41.74l-4.927-3.033v4.706C421.021,514.411,421.392,514.627,421.762,514.843ZM416.83,525.2v9.221l-1.112-.464v17.382c.371.108.741.221,1.112.33v9.221c-.371-.082-.742-.17-1.112-.258V578c.371.041.741.083,1.112.113v9.221c-.371-.01-.742-.026-1.112-.041v5.849h4.927V561.768c-.371-.088-.747-.17-1.117-.258v-9.041l1.117.335v-3.918l-1.117-.355v-9.025c.371.139.746.283,1.117.427V523.163l-1.117-.572v-9.041c.371.211.746.427,1.117.643v-4.706l-4.927-3.032v18.205C416.089,524.837,416.459,525.022,416.83,525.2Zm-4.922-16.074v9.536c-.371-.191-.746-.381-1.122-.572v4.181l1.122.54v9.551c-.371-.16-.746-.319-1.122-.474v4.186c.376.149.752.288,1.122.443v9.53c-.371-.118-.746-.237-1.122-.36v4.191l1.122.335v9.54c-.371-.088-.746-.175-1.122-.258v17.979c.376.041.752.077,1.122.124v9.54c-.371-.016-.746-.026-1.122-.041v6.05h4.933v-5.849c-.371-.016-.741-.031-1.117-.052v-9.355c.376.036.746.077,1.117.113V560.63c-.371-.088-.741-.17-1.117-.263v-9.355c.376.1.746.211,1.117.324V533.955c-.371-.154-.741-.314-1.117-.468v-9.36c.376.175.746.355,1.117.535V506.456l-4.933-3.032v5.04C411.161,508.68,411.537,508.9,411.908,509.123Zm-19.343-1.7v85.724H406.6V500.849c-2.343,1.092-4.685,2.193-7.023,3.285S394.907,506.322,392.565,507.419Zm14.04-6.57v92.294h4.181v-6.05c-.371-.015-.741-.036-1.112-.052v-9.69c.371.041.742.082,1.112.118V559.492c-.371-.082-.741-.17-1.112-.257v-9.69l1.112.33v-4.191q-.556-.178-1.112-.371v-9.674l1.112.433v-4.186c-.371-.159-.741-.309-1.112-.469v-9.695l1.112.546v-4.181c-.371-.191-.741-.386-1.112-.582v-9.69c.371.221.742.433,1.112.649v-5.04Zm-18.164-5.334V506.6c-.5-.258-1-.515-1.5-.778v4.871l1.5.726v11.1l-1.5-.638v4.876l1.5.587v11.075l-1.5-.484v4.876c.5.144,1,.293,1.5.437v11.1c-.5-.118-1-.232-1.5-.35v4.865c.5.1,1,.2,1.5.3v11.085l-1.5-.206v4.865c.5.052,1,.108,1.5.165v11.09l-1.5-.062v7.038h5.627v-100.9l-5.627-3.465v5.864Zm-6.631,29.239v11.517c-.494-.17-1-.335-1.5-.494v21.748c.5.1,1,.2,1.5.3v11.533l-1.5-.206v23.992h6.626v-7.038c-.5-.021-1-.046-1.5-.062V574.752c.494.052,1,.108,1.5.16v-4.865l-1.5-.206V558.555c.494.1,1,.211,1.5.309V554c-.5-.113-1-.226-1.5-.345V542.368c.494.149,1,.294,1.5.443v-4.876l-1.5-.484V526.165c.494.2,1,.4,1.5.592v-4.876l-1.5-.628V509.968l1.5.726v-4.871c-.5-.252-1-.515-1.5-.772V493.765l1.5.875v-5.864l-6.626-4.078v39.464C380.81,524.358,381.315,524.553,381.809,524.754Zm-6.626-36.936v11.955l-1.5-.762v5.241l1.5.726v11.965c-.5-.211-1-.417-1.5-.628v57.175c.5.052.994.1,1.5.16v11.971c-.5-.026-1-.046-1.5-.072v7.594h6.627V569.151l-1.5-.2V557.216l1.5.309V535.778c-.5-.165-1-.324-1.5-.489V523.575c.5.2,1,.391,1.5.587V484.7l-6.627-4.083v6.328C374.184,487.236,374.678,487.525,375.183,487.818Zm-6.632,13.932v12.4c-.5-.2-1-.412-1.5-.623v23.38l1.5.448v12.4c-.5-.113-1-.232-1.5-.345v5.432l1.5.3v12.4l-1.5-.206v25.8h6.631v-7.594c-.5-.016-1-.036-1.508-.052V573.326c.5.057,1,.108,1.508.165V516.316c-.5-.211-1-.417-1.508-.628V503.521l1.508.731v-5.241l-1.508-.767V486.078l1.508.865v-6.328q-3.313-2.038-6.631-4.078v24.492C367.553,501.271,368.052,501.513,368.551,501.75Zm-6.626-3.218v12.846c-.5-.216-1-.427-1.5-.633v5.633l1.5.587V529.79c-.5-.16-1-.319-1.5-.484v5.638l1.5.448v12.835c-.5-.118-1-.232-1.5-.345v24.183c.5.052,1,.1,1.5.16V585.06c-.5-.021-1-.036-1.5-.057v8.14h6.632v-25.8l-1.5-.206V554.549l1.5.293v-5.432c-.5-.118-1-.237-1.5-.35V536.467c.5.144,1,.294,1.5.438v-23.38c-.5-.211-1-.417-1.5-.628V500.309c.5.237,1,.479,1.5.721V476.538l-6.632-4.078v25.347ZM354.794,469V593.143h5.627V585c-.5-.016-1-.041-1.5-.067V571.905c.5.052,1,.108,1.5.16V547.882c-.5-.118-1-.231-1.5-.35V534.5l1.5.448v-5.638l-1.5-.495V515.786c.5.2,1,.4,1.5.592v-5.633c-.5-.211-1-.417-1.5-.628V497.081l1.5.726V472.46Zm-4.129,28.081v13.036c-.5.211-1,.417-1.5.628v24.2l1.5-.448v13.036c-.5.119-1,.232-1.5.35v24.183c.5-.052,1-.108,1.5-.16v13.031c-.5.026-1,.047-1.5.067v8.14h5.632V469l-5.632,3.46v25.347Zm-6.631-14.849V494.82c-.495.252-1,.515-1.5.767v23.39c.5-.2,1-.391,1.5-.582v12.573c-.495.165-1,.33-1.5.494v5.442c.5-.144,1-.294,1.5-.438v12.594c-.495.113-1,.232-1.5.35v43.732h6.626V585c-.5.02-1,.036-1.5.057V572.225c.5-.057,1-.108,1.5-.16V547.882c-.5.113-1,.227-1.5.345V535.391l1.5-.448v-24.2q-.749.309-1.5.633V498.533l1.5-.726V472.46l-6.626,4.078v6.554C343.035,482.809,343.539,482.52,344.034,482.232Zm-6.626,21.295v12.161c-.5.211-1,.417-1.5.628v22.566l1.5-.453V550.6c-.5.108-1,.221-1.5.34v5.246l1.5-.3v12.151l-1.5.211v5.241c.5-.057.994-.108,1.5-.165V585.5c-.5.016-1,.036-1.5.052v7.594h6.626V549.411c-.5.113-1,.232-1.5.345v-12.4l1.5-.448v-5.442c-.5.165-1,.33-1.5.489V519.564l1.5-.587v-23.39c-.5.262-1,.52-1.5.772v-12.4c.5-.283,1-.572,1.5-.865v-6.554q-3.321,2.039-6.626,4.078v23.632Zm-6.626,3.223v11.718l-1.5.633v38.424l1.5-.309V568.95l-1.5.2v23.992h6.631v-7.594c-.5.026-1,.046-1.5.072V573.651c.5-.057,1-.108,1.5-.16V568.25l-1.5.2V556.485l1.5-.3V550.94c-.5.118-1,.226-1.5.34V539.325l1.5-.443V516.316c-.5.211-1,.417-1.5.628V504.979l1.5-.731V480.615h0l-6.626,4.083v22.783Zm-6.631-12.985v11.286c-.5.258-1,.52-1.5.772v20.934c.5-.2,1-.391,1.5-.592v11.286l-1.5.484v4.876c.5-.149,1-.294,1.5-.443v11.286c-.5.118-1,.232-1.5.345v4.865c.5-.1,1-.206,1.5-.309v11.286l-1.5.206v4.865c.5-.052,1-.108,1.5-.154v11.286c-.5.016-1,.041-1.5.062v7.038h6.631V569.151l-1.5.206V557.824c.5-.1,1-.2,1.5-.3V519.1l-1.5.633V508.207l1.5-.726V484.7l-6.631,4.078v5.864Zm-21.166,7.084v92.294h14.04v-75.02q-3.506-4.317-7.018-8.634T302.984,500.849Zm14.04-8.609v100.9h5.622v-7.038l-1.5.062v-11.09c.5-.057,1-.113,1.5-.165v-4.865l-1.5.206V559.168c.5-.1,1-.2,1.5-.3V554c-.5.118-1,.232-1.5.35v-11.1c.5-.144,1-.293,1.5-.437v-4.876l-1.5.484V527.344l1.5-.587V505.823c-.5.262-1,.52-1.5.778V495.515l1.5-.875v-5.864Zm-17.109,29.481v9.695c-.376.16-.746.309-1.117.469v17.989l1.117-.33v9.69c-.376.088-.746.175-1.117.257v4.181l1.117-.222v9.69l-1.117.154v4.176c.371-.036.741-.077,1.117-.118v9.69c-.376.016-.746.036-1.117.052v6.05h4.186V500.849l-4.186,2.575v18.844Zm-4.927-11.033v9.36c-.371.19-.741.381-1.122.571v4.042c.381-.18.752-.36,1.122-.535v9.36c-.371.154-.741.314-1.122.468v4.052c.381-.144.752-.294,1.122-.438v9.35c-.371.124-.741.242-1.122.371v17.382l1.122-.221v9.36l-1.122.149v19.183H298.8v-6.05c-.371.016-.741.026-1.117.041v-9.54c.376-.046.746-.082,1.117-.124V573.3l-1.117.155V563.9l1.117-.226v-4.181c-.371.082-.741.17-1.117.258v-9.54l1.117-.335V531.885c-.371.155-.741.314-1.117.474v-9.551l1.117-.54V503.424l-4.932,3.032v4.87C294.247,511.116,294.617,510.9,294.988,510.688Zm-4.932,15.827v9.046l-1.112.468v3.9c.371-.144.741-.288,1.112-.427v9.025l-1.112.355V565.67l1.112-.221v9.036l-1.112.149v18.509h4.922V573.96l-1.112.149v-9.216l1.112-.221V547.29c-.371.119-.741.242-1.112.361v-9.211l1.112-.432v-4.052l-1.112.464V525.2c.371-.175.742-.36,1.112-.536V520.62l-1.112.572V511.97c.371-.216.742-.427,1.112-.644v-4.87l-4.922,3.032v17.567Zm-4.922,2.4v8.711l-1.122.474v3.764c.376-.149.746-.293,1.122-.443v8.717c-.376.113-.746.237-1.122.355v3.769c.376-.108.746-.221,1.122-.33v8.717c-.376.093-.746.175-1.122.258v16.156l1.122-.124v8.722l-1.122.047v5.437h4.932V574.634l-1.117.149v-8.9l1.117-.216V548.886l-1.117.371V540.37c.376-.149.747-.293,1.117-.438v-3.9c-.371.149-.741.3-1.117.464v-8.9l1.117-.541V509.489h-.005l-4.927,3.033v16.934Zm-4.933-9.654v8.392l-1.112.572v15.564c.371-.149.741-.288,1.112-.443v8.392l-1.112.366v3.62c.371-.108.741-.217,1.112-.33v8.392c-.371.082-.741.17-1.112.258v3.614c.371-.077.741-.149,1.112-.226v8.387l-1.112.154v3.615c.371-.036.741-.077,1.112-.113v8.387c-.371.015-.741.031-1.112.051v5.231h4.922v-5.437c-.371.021-.742.031-1.112.046V579.18c.371-.041.742-.077,1.112-.118V562.906c-.371.088-.742.17-1.112.262V554.59c.371-.108.742-.216,1.112-.33v-3.769c-.371.124-.742.242-1.112.371V542.3c.371-.149.742-.3,1.112-.438V538.1l-1.112.469V530l1.112-.54V512.521l-4.922,3.032v4.361Zm-5.3-1.138v75.02h4.186v-5.231l-1.122.047v-8.243c.376-.046.746-.082,1.122-.129v-3.615l-1.122.149v-8.243c.376-.072.746-.144,1.122-.221v-3.614c-.376.082-.746.17-1.122.258v-8.248c.376-.113.746-.221,1.122-.329V552.1l-1.122.355v-8.232c.376-.149.746-.289,1.122-.438V528.224l-1.122.582v-8.243l1.122-.649v-4.361Zm-6.976,15.749v8.042h-2.538v3.5h2.538v8.037h-2.538v15.039h2.538v8.042h-2.538v3.5h2.538v8.042h-2.538v5.066H274.9V528.508H270.47v-7.229h-5.081v12.593Zm-11.214,11.543v8.037H254.18v3.5h2.534V565H254.18v15.039h2.534v8.042H254.18v5.066h11.209v-5.066h-2.539v-8.042h2.539v-3.5h-2.539v-8.042h2.539V553.453h-2.539v-8.037h2.539v-3.5h-2.539v-8.042h2.539V521.279H254.18v24.137Zm-10.421-24.137h-3.326v35.675h2.543V565h-2.543v28.147H254.18v-5.066h-2.543v-8.042h2.543V565h-2.543v-8.042h2.543v-3.5h-2.543v-8.037h2.543V521.279h-3.692m-15.044,0h-3.687v12.593H234.3v8.042h-2.538v3.5H234.3v8.037h-2.538v3.5H234.3V565h-2.538v3.5H234.3v8.042h-2.538v3.5H234.3v8.042h-2.538v5.066h11.209V565h-2.538v-8.042h2.538V521.279h-3.321m-16.563,12.593v8.042H220.55v15.039h2.533V565H220.55v3.5h2.533v8.042H220.55v16.609h11.208v-5.066H229.22v-8.042h2.538v-3.5H229.22v-8.042h2.538V565H229.22v-8.042h2.538v-3.5H229.22v-8.037h2.538v-3.5H229.22v-8.042h2.538V521.279H220.55v12.593Zm-12.053-5.365v64.635h9.52V576.534h-2.543v-8.042h2.543V565h-2.543v-8.042h2.543V541.915h-2.543v-8.042h2.543V521.279h-5.082v7.229Z" transform="translate(-316.971 -464.041)" fill="#acd4e6" fill-rule="evenodd"/>
      </g>
    </g>
    <g id="Group_907" data-name="Group 907" transform="translate(1295.127 1952.663)">
      <path id="Path_1919-2" data-name="Path 1919" d="M548.668,781.061c1.316.4,2.289.748,2.333,2.492.049,1.961.237,5.809.513,8.379s1.037,8.071,1.083,9.808.229,5.442.183,5.853-.365.365-.228,1.052a2.135,2.135,0,0,1-.228,1.783,1.241,1.241,0,0,0-.183,1.052l3.2-.137-.229,12.666-5.024,3.886a3.449,3.449,0,0,0-1.417-.588V811.876l.57-.086a4.388,4.388,0,0,1,.059-1.492,3.633,3.633,0,0,0,0-1.791s-.209.63-.629.708Zm-7.07-13.836a3.269,3.269,0,0,1,3.232,2.5,24.241,24.241,0,0,1,.1,3.531,2.245,2.245,0,0,1,.1,1.765,1.3,1.3,0,0,1-1.322.637,13.223,13.223,0,0,0-.245,1.912,1.7,1.7,0,0,0,.588,1.569,18.09,18.09,0,0,0,4.114,1.765c.174.054.344.1.507.156v28.153a.472.472,0,0,1-.086.008,2.39,2.39,0,0,0-.656.06,6.6,6.6,0,0,1,.179,1.374c0,.656-.06,1.313-.06,1.313l.623-.093v15.433a1.348,1.348,0,0,0-.135-.006,9.989,9.989,0,0,0-1.1.045s.2,3.763.2,5.247-.131,3.844-.785,4.935a3.67,3.67,0,0,0-.741,2.4c0,.96,1.4,3.537,1.352,4.411s-.262,2.227-1.7,2.183-2.529-.611-2.529-1.791.174-1.922-.305-2.358.261-1.485-.567-2.62.087-1.266-.131-2.315a34.285,34.285,0,0,1,.262-5.5c.087-1.266-.131-2.751-.785-8.167s-1.047-7.773-1.222-8.952-.48-2.664-.48-2.664-.829,5.066-1.527,6.332-1.439,7.556-1.657,9.39-.088,7.25-.524,7.817a4.578,4.578,0,0,0-.654,1.354s1.134.655,1.134,1.572-.829,1.66-.785,2.838-.087,2.184-.567,2.446-.393,2.271-1,2.969a2.71,2.71,0,0,1-2.835.918c-1.221-.35-1.221-1.966-.61-3.494s1.352-2.577,1.134-3.188a2.014,2.014,0,0,1,.174-2.14c.61-.611-.044-1.266-.436-1.791s-.305-2.969-.349-4.28.131-7.861.044-10.263-.305-9.607.043-11.616a10.318,10.318,0,0,0,.043-3.494s-.785.393-.785-.349a4.6,4.6,0,0,0-.043-2.183c-.349-1.31-.436-2.533-.829-3.538s-.479-2.708,0-3.231-.218-3.407.218-5.591a53.582,53.582,0,0,0,.785-7.555c.043-1.878.131-3.232,2.573-3.843s4.23-1.31,4.58-1.835a4.852,4.852,0,0,0,.393-2.489,10.8,10.8,0,0,1-.131-1.441c0-.349-.7.175-.872-.48a6.089,6.089,0,0,1-.161-2.188.386.386,0,0,1,.378-.083,21.808,21.808,0,0,1,.009-2.98C537.841,768.442,539.175,767.314,541.6,767.225Zm6.147,45.075" transform="translate(-529.643 -767.225)" fill="#9f9f9f" fill-rule="evenodd"/>
      <path id="Path_1920-2" data-name="Path 1920" d="M532.016,826.355a1.759,1.759,0,0,1,0-1.875c.646-.841,2.131-.194,2.131-.194a3.11,3.11,0,0,0-1.614.452C531.952,825.192,532.146,825.515,532.016,826.355Z" transform="translate(-530.377 -787.224)" fill="#9f9f9f" fill-rule="evenodd"/>
      <path id="Path_1921-2" data-name="Path 1921" d="M559.972,830s0-1.1,1.485-1.1a1.651,1.651,0,0,1,1.744,1.164,3.142,3.142,0,0,0-1.788-.574C560.424,829.524,560.409,829.538,559.972,830Z" transform="translate(-540.317 -788.933)" fill="#9f9f9f" fill-rule="evenodd"/>
      <path id="Path_1922-2" data-name="Path 1922" d="M546.564,784.412a1.321,1.321,0,0,0,.338.609c-.3,1.617-.977,6.435-1.237,10a98.685,98.685,0,0,0,.447,11.923,16.571,16.571,0,0,1-2.382.1,26.023,26.023,0,0,1-5.457-1.143,18.447,18.447,0,0,0,1.091-2.534A74.957,74.957,0,0,0,541,790.4a23.81,23.81,0,0,0-.019-4.755.914.914,0,0,0,.182-.193,2.321,2.321,0,0,0,.276-.738,4.121,4.121,0,0,0,2.737,2.209C544.977,786.921,546.067,785.337,546.564,784.412Z" transform="translate(-532.68 -773.274)" fill="#9f9f9f" fill-rule="evenodd"/>
      <path id="Path_1923-2" data-name="Path 1923" d="M544.4,789.66a2.28,2.28,0,0,1,1.736-.993,2.429,2.429,0,0,1,1.787.993s-1.191-.248-1.141.546.446,4.968.446,7.7.2,9.835-.1,11.177-1.241,1.838-1.439.1-.148-11.078-.1-12.867a55.222,55.222,0,0,0,.149-6.061A.974.974,0,0,0,544.4,789.66Z" transform="translate(-534.836 -774.771)" fill="#9f9f9f" fill-rule="evenodd" opacity="0.5"/>
    </g>
    <g id="Group_908" data-name="Group 908" transform="translate(1266.127 1952.663)">
      <path id="Path_1919-3" data-name="Path 1919" d="M548.668,781.061c1.316.4,2.289.748,2.333,2.492.049,1.961.237,5.809.513,8.379s1.037,8.071,1.083,9.808.229,5.442.183,5.853-.365.365-.228,1.052a2.135,2.135,0,0,1-.228,1.783,1.241,1.241,0,0,0-.183,1.052l3.2-.137-.229,12.666-5.024,3.886a3.449,3.449,0,0,0-1.417-.588V811.876l.57-.086a4.388,4.388,0,0,1,.059-1.492,3.633,3.633,0,0,0,0-1.791s-.209.63-.629.708Zm-7.07-13.836a3.269,3.269,0,0,1,3.232,2.5,24.241,24.241,0,0,1,.1,3.531,2.245,2.245,0,0,1,.1,1.765,1.3,1.3,0,0,1-1.322.637,13.223,13.223,0,0,0-.245,1.912,1.7,1.7,0,0,0,.588,1.569,18.09,18.09,0,0,0,4.114,1.765c.174.054.344.1.507.156v28.153a.472.472,0,0,1-.086.008,2.39,2.39,0,0,0-.656.06,6.6,6.6,0,0,1,.179,1.374c0,.656-.06,1.313-.06,1.313l.623-.093v15.433a1.348,1.348,0,0,0-.135-.006,9.989,9.989,0,0,0-1.1.045s.2,3.763.2,5.247-.131,3.844-.785,4.935a3.67,3.67,0,0,0-.741,2.4c0,.96,1.4,3.537,1.352,4.411s-.262,2.227-1.7,2.183-2.529-.611-2.529-1.791.174-1.922-.305-2.358.261-1.485-.567-2.62.087-1.266-.131-2.315a34.285,34.285,0,0,1,.262-5.5c.087-1.266-.131-2.751-.785-8.167s-1.047-7.773-1.222-8.952-.48-2.664-.48-2.664-.829,5.066-1.527,6.332-1.439,7.556-1.657,9.39-.088,7.25-.524,7.817a4.578,4.578,0,0,0-.654,1.354s1.134.655,1.134,1.572-.829,1.66-.785,2.838-.087,2.184-.567,2.446-.393,2.271-1,2.969a2.71,2.71,0,0,1-2.835.918c-1.221-.35-1.221-1.966-.61-3.494s1.352-2.577,1.134-3.188a2.014,2.014,0,0,1,.174-2.14c.61-.611-.044-1.266-.436-1.791s-.305-2.969-.349-4.28.131-7.861.044-10.263-.305-9.607.043-11.616a10.318,10.318,0,0,0,.043-3.494s-.785.393-.785-.349a4.6,4.6,0,0,0-.043-2.183c-.349-1.31-.436-2.533-.829-3.538s-.479-2.708,0-3.231-.218-3.407.218-5.591a53.582,53.582,0,0,0,.785-7.555c.043-1.878.131-3.232,2.573-3.843s4.23-1.31,4.58-1.835a4.852,4.852,0,0,0,.393-2.489,10.8,10.8,0,0,1-.131-1.441c0-.349-.7.175-.872-.48a6.089,6.089,0,0,1-.161-2.188.386.386,0,0,1,.378-.083,21.808,21.808,0,0,1,.009-2.98C537.841,768.442,539.175,767.314,541.6,767.225Zm6.147,45.075" transform="translate(-529.643 -767.225)" fill="#9f9f9f" fill-rule="evenodd"/>
      <path id="Path_1920-3" data-name="Path 1920" d="M532.016,826.355a1.759,1.759,0,0,1,0-1.875c.646-.841,2.131-.194,2.131-.194a3.11,3.11,0,0,0-1.614.452C531.952,825.192,532.146,825.515,532.016,826.355Z" transform="translate(-530.377 -787.224)" fill="#9f9f9f" fill-rule="evenodd"/>
      <path id="Path_1921-3" data-name="Path 1921" d="M559.972,830s0-1.1,1.485-1.1a1.651,1.651,0,0,1,1.744,1.164,3.142,3.142,0,0,0-1.788-.574C560.424,829.524,560.409,829.538,559.972,830Z" transform="translate(-540.317 -788.933)" fill="#9f9f9f" fill-rule="evenodd"/>
      <path id="Path_1922-3" data-name="Path 1922" d="M546.564,784.412a1.321,1.321,0,0,0,.338.609c-.3,1.617-.977,6.435-1.237,10a98.685,98.685,0,0,0,.447,11.923,16.571,16.571,0,0,1-2.382.1,26.023,26.023,0,0,1-5.457-1.143,18.447,18.447,0,0,0,1.091-2.534A74.957,74.957,0,0,0,541,790.4a23.81,23.81,0,0,0-.019-4.755.914.914,0,0,0,.182-.193,2.321,2.321,0,0,0,.276-.738,4.121,4.121,0,0,0,2.737,2.209C544.977,786.921,546.067,785.337,546.564,784.412Z" transform="translate(-532.68 -773.274)" fill="#9f9f9f" fill-rule="evenodd"/>
      <path id="Path_1923-3" data-name="Path 1923" d="M544.4,789.66a2.28,2.28,0,0,1,1.736-.993,2.429,2.429,0,0,1,1.787.993s-1.191-.248-1.141.546.446,4.968.446,7.7.2,9.835-.1,11.177-1.241,1.838-1.439.1-.148-11.078-.1-12.867a55.222,55.222,0,0,0,.149-6.061A.974.974,0,0,0,544.4,789.66Z" transform="translate(-534.836 -774.771)" fill="#9f9f9f" fill-rule="evenodd" opacity="0.5"/>
    </g>
    <g id="Group_909" data-name="Group 909" transform="translate(1236.127 1952.663)">
      <path id="Path_1919-4" data-name="Path 1919" d="M548.668,781.061c1.316.4,2.289.748,2.333,2.492.049,1.961.237,5.809.513,8.379s1.037,8.071,1.083,9.808.229,5.442.183,5.853-.365.365-.228,1.052a2.135,2.135,0,0,1-.228,1.783,1.241,1.241,0,0,0-.183,1.052l3.2-.137-.229,12.666-5.024,3.886a3.449,3.449,0,0,0-1.417-.588V811.876l.57-.086a4.388,4.388,0,0,1,.059-1.492,3.633,3.633,0,0,0,0-1.791s-.209.63-.629.708Zm-7.07-13.836a3.269,3.269,0,0,1,3.232,2.5,24.241,24.241,0,0,1,.1,3.531,2.245,2.245,0,0,1,.1,1.765,1.3,1.3,0,0,1-1.322.637,13.223,13.223,0,0,0-.245,1.912,1.7,1.7,0,0,0,.588,1.569,18.09,18.09,0,0,0,4.114,1.765c.174.054.344.1.507.156v28.153a.472.472,0,0,1-.086.008,2.39,2.39,0,0,0-.656.06,6.6,6.6,0,0,1,.179,1.374c0,.656-.06,1.313-.06,1.313l.623-.093v15.433a1.348,1.348,0,0,0-.135-.006,9.989,9.989,0,0,0-1.1.045s.2,3.763.2,5.247-.131,3.844-.785,4.935a3.67,3.67,0,0,0-.741,2.4c0,.96,1.4,3.537,1.352,4.411s-.262,2.227-1.7,2.183-2.529-.611-2.529-1.791.174-1.922-.305-2.358.261-1.485-.567-2.62.087-1.266-.131-2.315a34.285,34.285,0,0,1,.262-5.5c.087-1.266-.131-2.751-.785-8.167s-1.047-7.773-1.222-8.952-.48-2.664-.48-2.664-.829,5.066-1.527,6.332-1.439,7.556-1.657,9.39-.088,7.25-.524,7.817a4.578,4.578,0,0,0-.654,1.354s1.134.655,1.134,1.572-.829,1.66-.785,2.838-.087,2.184-.567,2.446-.393,2.271-1,2.969a2.71,2.71,0,0,1-2.835.918c-1.221-.35-1.221-1.966-.61-3.494s1.352-2.577,1.134-3.188a2.014,2.014,0,0,1,.174-2.14c.61-.611-.044-1.266-.436-1.791s-.305-2.969-.349-4.28.131-7.861.044-10.263-.305-9.607.043-11.616a10.318,10.318,0,0,0,.043-3.494s-.785.393-.785-.349a4.6,4.6,0,0,0-.043-2.183c-.349-1.31-.436-2.533-.829-3.538s-.479-2.708,0-3.231-.218-3.407.218-5.591a53.582,53.582,0,0,0,.785-7.555c.043-1.878.131-3.232,2.573-3.843s4.23-1.31,4.58-1.835a4.852,4.852,0,0,0,.393-2.489,10.8,10.8,0,0,1-.131-1.441c0-.349-.7.175-.872-.48a6.089,6.089,0,0,1-.161-2.188.386.386,0,0,1,.378-.083,21.808,21.808,0,0,1,.009-2.98C537.841,768.442,539.175,767.314,541.6,767.225Zm6.147,45.075" transform="translate(-529.643 -767.225)" fill="#9f9f9f" fill-rule="evenodd"/>
      <path id="Path_1920-4" data-name="Path 1920" d="M532.016,826.355a1.759,1.759,0,0,1,0-1.875c.646-.841,2.131-.194,2.131-.194a3.11,3.11,0,0,0-1.614.452C531.952,825.192,532.146,825.515,532.016,826.355Z" transform="translate(-530.377 -787.224)" fill="#9f9f9f" fill-rule="evenodd"/>
      <path id="Path_1921-4" data-name="Path 1921" d="M559.972,830s0-1.1,1.485-1.1a1.651,1.651,0,0,1,1.744,1.164,3.142,3.142,0,0,0-1.788-.574C560.424,829.524,560.409,829.538,559.972,830Z" transform="translate(-540.317 -788.933)" fill="#9f9f9f" fill-rule="evenodd"/>
      <path id="Path_1922-4" data-name="Path 1922" d="M546.564,784.412a1.321,1.321,0,0,0,.338.609c-.3,1.617-.977,6.435-1.237,10a98.685,98.685,0,0,0,.447,11.923,16.571,16.571,0,0,1-2.382.1,26.023,26.023,0,0,1-5.457-1.143,18.447,18.447,0,0,0,1.091-2.534A74.957,74.957,0,0,0,541,790.4a23.81,23.81,0,0,0-.019-4.755.914.914,0,0,0,.182-.193,2.321,2.321,0,0,0,.276-.738,4.121,4.121,0,0,0,2.737,2.209C544.977,786.921,546.067,785.337,546.564,784.412Z" transform="translate(-532.68 -773.274)" fill="#9f9f9f" fill-rule="evenodd"/>
      <path id="Path_1923-4" data-name="Path 1923" d="M544.4,789.66a2.28,2.28,0,0,1,1.736-.993,2.429,2.429,0,0,1,1.787.993s-1.191-.248-1.141.546.446,4.968.446,7.7.2,9.835-.1,11.177-1.241,1.838-1.439.1-.148-11.078-.1-12.867a55.222,55.222,0,0,0,.149-6.061A.974.974,0,0,0,544.4,789.66Z" transform="translate(-534.836 -774.771)" fill="#9f9f9f" fill-rule="evenodd" opacity="0.5"/>
    </g>
    <path id="Path_1955" data-name="Path 1955" d="M650.021,778.246c-1.718,1.782-.935,3.78-.859,4.543.107,1.074.264,1.8.493,3.12.255,1.46.738,1.968.973,3.363s1.574,4.759,1.661,5.639-.465,1.56-.529,2.5-.387,1.89-.472,2.748-.279,2.641-.387,3.907-.042,1.8.065,1.932c-.107.194.515.258.708.237l.022.279c.021.279.451,1.517.493,2.2s-.214,3.314-.256,3.872a36.8,36.8,0,0,1-.216,4.2c-.236,1.224-.343,2.533-.515,3.263s-.279,2.641-.429,3.692a27.074,27.074,0,0,0-.623,4.6c-.065,2.319-.623,5.561-.6,7.171a13.377,13.377,0,0,0,.279,2.576c.065.58.429.944.344,1.416s-.107,1.052.043,1.052a1.164,1.164,0,0,0-.108.472,3.551,3.551,0,0,0,0,.73,8.63,8.63,0,0,0,1.309.236,5.479,5.479,0,0,0,.816-.021s1.588.065,2.619.065a21.853,21.853,0,0,0,3.692-.193c.687.022,1.846-.065,1.846-.065l.043-.344a13.909,13.909,0,0,1,1.975.151,14.18,14.18,0,0,0,3.263.236,10.821,10.821,0,0,0,3.371-.966c.065-.151.043-.344-.107-.344h-.15a.484.484,0,0,0-.495-.622,7.678,7.678,0,0,1-5.121-1.186.154.154,0,0,0,.035-.1c-.037-.166-.359-.395-.6-.592-.04-.035-.077-.067-.112-.1a.614.614,0,0,1-.218-.51.253.253,0,0,1,.09-.134.933.933,0,0,0,.472-.708,5.005,5.005,0,0,0-.193-1.739,4.927,4.927,0,0,1,.409-2.017,11.708,11.708,0,0,0,.15-2.791c.021-1.288.558-5.9.944-9.145s.708-9.617.816-11.485c.034-.593.064-1.34.085-2.135.453.061,1.473.156,1.59-.226a6.858,6.858,0,0,0,.021-2.619c-.171-1.1-.643-3.242-.729-4.595-.073-1.153-.319-2.9-.455-4.666.822.434,1.631.869,2.043,1.125.966.6,1.223.731,1.223.731a5.833,5.833,0,0,1,.58-.881c.041-.04.106-.109.186-.2.231.176,1.092.834,1.2.871.04.014.111-.016.2-.08a.7.7,0,0,0,.444.635.732.732,0,0,0,.487.458.577.577,0,0,0,.572.272.542.542,0,0,0,.648.039.674.674,0,0,0,.168.065.463.463,0,0,0,.516-.286c.171-.015.414.057.529-.558a1.772,1.772,0,0,0,.306.059c.066.122.131.238.181.331.15.279.043.344.322.193s1.718-.559,2.4-.9a55.478,55.478,0,0,1,5.732-2.169,27.655,27.655,0,0,0,4.723-2.276,1.371,1.371,0,0,1,.15.73c-.022.451-.58,3.156-.666,3.993s-.386,2.941-.472,4.573c-.072,1.347-.274,2.9-.451,4.379-.029.181-.054.339-.072.462a3.7,3.7,0,0,0-.043.546,1.382,1.382,0,0,0,.209.912.99.99,0,0,0,.413.389,1.536,1.536,0,0,0,.143.058,4.485,4.485,0,0,0,1.411.275c.407.064.859-.022.965.322.032.1.1.715.168,1.607a.719.719,0,0,0-.3.625c-.022.837.043,12.237.043,12.237s-.043.6.279.665h.807c.181,2.269.379,4.452.481,5.69.193,2.34.537,4.68.559,5.131a3.371,3.371,0,0,1-.709,1.76.623.623,0,0,0,0,.944c.215.129.021.408-.236.559s-.065.516-.343.794a3.017,3.017,0,0,1-1.009.558c-.194.064-.623.107-.967.237a19.393,19.393,0,0,1-2.232,0c-.515-.022-.536.515-.6.708-.129-.022-.193-.022-.193.128s.28.236,1.2.473a15.024,15.024,0,0,0,3.305.386,76.447,76.447,0,0,0,10.262-.043,2.5,2.5,0,0,0,.007-.909.412.412,0,0,0,.1-.066.044.044,0,0,0,.024-.054c-.022-.085.064-.9.042-1.094a5.134,5.134,0,0,0-.129-1.1,3.937,3.937,0,0,1-.215-1.245c0-.429.065-1.61.3-4.251a63.468,63.468,0,0,0,.3-7.3c-.021-.378-.052-.826-.091-1.322l8.613-.01s.343.043.429-.558-.257-12.73-.257-12.73-.022-.365-.516-.407c-.185-.017-2.84-.011-6.08,0a1.12,1.12,0,0,0-.253-.374.411.411,0,0,0-.214-.1c-.014-1.381-.508-1.77-.947-1.9a9.242,9.242,0,0,0-.32-1.307.133.133,0,0,0-.012-.022h0c.036.026.17-.259.09-.369.026.012.05.026.071.038.387.237.365.193.365.129s.15-3.5.193-5.088.322-4.122.28-4.83a5.6,5.6,0,0,1,.343-1.889,14.839,14.839,0,0,0-.193-3.779,3.879,3.879,0,0,1,.129-1.588,1.91,1.91,0,0,0,.193-1.073c-.085-.408.036-1.417.021-2.733a8.068,8.068,0,0,0-.314-3.163,3.538,3.538,0,0,0-1.56-1.66,12.147,12.147,0,0,1-1.36-.5,7.184,7.184,0,0,1-1.7-1.9.139.139,0,0,0-.024-.006l-.033-.109a4.479,4.479,0,0,0,.586-.858c.23-.5,1.288-2.061,1.96-3.564a4.721,4.721,0,0,0-.558-4.68,1.821,1.821,0,0,0-1.588-.73,5.011,5.011,0,0,0-6.837.977.974.974,0,0,0-.161,1.2,2.5,2.5,0,0,1-.286.773.361.361,0,0,0-.033.1.1.1,0,0,0-.025.011.735.735,0,0,0-.386.387,2.359,2.359,0,0,0-.085.759c-.2.219-.415.439-.559.575a.4.4,0,0,0-.011.64c.161.122.354.118.418.247a.372.372,0,0,1-.042.429.221.221,0,0,0,.075.376.3.3,0,0,1-.033.516.325.325,0,0,0-.106.515c.091.086.106.258.021.494-.343.945.387.966.816,1.074s1.1.472,1.137.666a5.62,5.62,0,0,0,.258.923,4.652,4.652,0,0,1,.163.994l0-.022s-.033-.006-.218.237-.586.888-.586.888l.016-.016a.573.573,0,0,0-.073.116c-.072.158-.172.616-.244.831s.042.1-.815.987a9.386,9.386,0,0,0-1.676,3.177c-.085.386-.579.279-.815.558s-.3.708-.945.966a4.569,4.569,0,0,0-1.675,1.159,2.2,2.2,0,0,1-1.331.794c-.472.065-1.052.6-1.674.537s-.559.386-.989.429-1.438.623-1.889.731a6.3,6.3,0,0,0-1.546.73c-.451.279-1.224.515-1.567.687-.294.148-1.311.436-1.908.642l0,0a1.571,1.571,0,0,0-.221.082,6.2,6.2,0,0,0-.638-.64.621.621,0,0,0-.573-.044c-.157.1-.379.187-.444.4a1.33,1.33,0,0,0-.028.377c-.2-.043-.361-.079-.4-.091a.215.215,0,0,0-.032,0c-.014-.034-.025-.066-.04-.1a7.079,7.079,0,0,0-.967-.495.265.265,0,0,0-.035-.105s-.9-.579-1.4-.838-1.181-.558-1.546-.73a9.7,9.7,0,0,1-1.46-.773c-.336-.248-1.037-.584-1.477-.862-.082-.543-.154-1.051-.2-1.5a16.752,16.752,0,0,0-1.052-4.057,31.566,31.566,0,0,0-1.718-3.607c-.58-.966-1.223-1.8-1.267-2.018a11.258,11.258,0,0,0-.343-1.117c-.065-.15-.816-1.2-.816-1.2l-.041-.046c-.043-.129-.086-.256-.124-.355a3.291,3.291,0,0,0-.724-.939,1.759,1.759,0,0,1,.036-.393c.115-.458.043-.63.859-.745s1.273-.3,1.273-.8c0-.471-.257-.715-.128-.859a.464.464,0,0,0,.086-.472.31.31,0,0,1,.179-.372.281.281,0,0,0,.172-.393c-.083-.176.042-.358.117-.552.319.058.548-.042.519-.4a1.868,1.868,0,0,0-.1-.431.17.17,0,0,0,.145.073c.172.014.344.058.444-.187s.257-.772-.015-.929a1.238,1.238,0,0,0-.661-.219,1.171,1.171,0,0,0-.026-.44,6.219,6.219,0,0,0-.6-2.246,1,1,0,0,0,.429-.816c-.015-.329-.072.057-.172.029s-.058-.258-.2-.486a2.89,2.89,0,0,0-1.3-.788,8.337,8.337,0,0,0-1.517-.314,9.057,9.057,0,0,0-2.4.172,4.3,4.3,0,0,0-1.531.687,3.481,3.481,0,0,0-1.359,2.848,6.838,6.838,0,0,0,.715,3.048,8.411,8.411,0,0,0,.473,1.217c.158.3.386.429.444.7a3.6,3.6,0,0,1-.143,1.417l0,.008a1.159,1.159,0,0,0-.331-.08c-.15.013-.285.808-.3.893a.8.8,0,0,0-.4.022c-.064.043-.172.6-.321.9s-.13.408-.13.408S651.738,776.464,650.021,778.246Zm49.458,31.208a.447.447,0,0,0,.858-.092.392.392,0,0,0,.683-.028.954.954,0,0,0,.081-.156c.333.034.292.986.292.986v0a.884.884,0,0,0-.457.477l-1.667.008c-.009-.121-.016-.41-.023-.789C699.44,809.754,699.443,809.608,699.479,809.454Zm-2.78-31.248a.257.257,0,0,0-.048-.006A.257.257,0,0,1,696.7,778.206Zm-40.645,58.948a3.467,3.467,0,0,0,.516-1.718,20.7,20.7,0,0,1,.44-2.427c.017.245.047.77.031,1.375a4.987,4.987,0,0,0,.067,1.1c.009.587-.062.843-.283,1.042-.236.215-.171.3-.064.773a2.145,2.145,0,0,1-.086,1.159,3.366,3.366,0,0,0-.074.941l-.011,0a.979.979,0,0,1-.676-.322.278.278,0,0,0-.048-.134l.016.005s-.043-.236-.107-.73A1.272,1.272,0,0,1,656.053,837.153Z" transform="translate(686.958 1188.169)" fill="#35b0e5"/>
  </g>
</svg>
