<svg id="Group_2689" data-name="Group 2689" xmlns="http://www.w3.org/2000/svg" width="25.024" height="26.759" viewBox="0 0 25.024 26.759">
  <g id="Group_1015" data-name="Group 1015" transform="translate(0 0)">
    <g id="Group_85" data-name="Group 85">
      <path id="Path_209" data-name="Path 209" d="M1199.757,186.119l.249-4.078a.888.888,0,0,0-.837-.833l-4.338,0Z" transform="translate(-1179.158 -179.449)" fill="#f8bb15"/>
      <g id="Group_84" data-name="Group 84">
        <path id="Path_210" data-name="Path 210" d="M1160.558,176.478,1149.61,187.4c-.559.559.036,1.31,1.038,1.31h21.9c1,0,1.6-.752,1.037-1.31l-10.948-10.926A1.636,1.636,0,0,0,1160.558,176.478Z" transform="translate(-1149.395 -176.107)" fill="#33a750"/>
        <path id="Path_211" data-name="Path 211" d="M1211.211,230.624h-.43v0l-.057,0H1206.9a1.236,1.236,0,0,0-1.244,1.22v5.883a1.105,1.105,0,0,0,.009.136h-.009v.546a1.2,1.2,0,0,0,.01.148h3.968c.9,0,1.637-.483,1.637-1.078v-6.853C1211.253,230.626,1211.233,230.624,1211.211,230.624Z" transform="translate(-1186.25 -211.818)" fill="#e94434"/>
        <g id="Group_83" data-name="Group 83" transform="translate(0 13.428)">
          <path id="Path_212" data-name="Path 212" d="M1172.555,215.035h-21.3c-1.029,0-1.864.527-1.864,1.178v10.975c0,.65.834,1.178,1.864,1.178h16.769v-7.333a1.38,1.38,0,0,1,1.416-1.333h4.976v-3.488C1174.419,215.562,1173.584,215.035,1172.555,215.035Zm-17.966,3.713a.57.57,0,0,1-.568.568h-2.011a.57.57,0,0,1-.568-.568v-1.06a.57.57,0,0,1,.568-.568h2.011a.57.57,0,0,1,.568.568Z" transform="translate(-1149.395 -215.035)" fill="#0092d7"/>
        </g>
      </g>
    </g>
  </g>
</svg>
